SplineFontDB: 3.0
FontName: Karmilla-Regular
FullName: Karmilla Regular
FamilyName: Karmilla
Weight: Regular
Copyright: Karmilla is Copyright (c) 2012, Manuel Schmalstieg (greyscalepress.com) and Raphael Bastide (raphaelbastide.com) \nKarmilla is a variation of Karla, optimized for French.\nKarla is Copyright (c) 2011, Jonathan Pinhorn (pinhorn.typedesign@gmail.com), with Reserved Font Names "Karla" and "Karla Tamil".
Version: 1.900
ItalicAngle: 0
UnderlinePosition: -50
UnderlineWidth: 50
Ascent: 800
Descent: 200
sfntRevision: 0x00010000
LayerCount: 2
Layer: 0 1 "Back"  1
Layer: 1 1 "Fore"  0
XUID: [1021 288 713564382 10587622]
FSType: 8
OS2Version: 3
OS2_WeightWidthSlopeOnly: 0
OS2_UseTypoMetrics: 1
CreationTime: 1307536560
ModificationTime: 1397599271
PfmFamily: 33
TTFWeight: 400
TTFWidth: 5
LineGap: 0
VLineGap: 0
Panose: 0 0 0 0 0 0 0 0 0 0
OS2TypoAscent: 917
OS2TypoAOffset: 0
OS2TypoDescent: -252
OS2TypoDOffset: 0
OS2TypoLinegap: 0
OS2WinAscent: 917
OS2WinAOffset: 0
OS2WinDescent: 252
OS2WinDOffset: 0
HheadAscent: 917
HheadAOffset: 0
HheadDescent: -252
HheadDOffset: 0
OS2SubXSize: 700
OS2SubYSize: 650
OS2SubXOff: 0
OS2SubYOff: 140
OS2SupXSize: 700
OS2SupYSize: 650
OS2SupXOff: 0
OS2SupYOff: 477
OS2StrikeYSize: 50
OS2StrikeYPos: 250
OS2Vendor: 'pyrs'
OS2CodePages: 00000001.00000000
OS2UnicodeRanges: 80000027.08000042.14000000.00000000
Lookup: 1 0 0 "'onum' Oldstyle Figures in Latin lookup 0"  {"'onum' Oldstyle Figures in Latin lookup 0 subtable" ("oldstyle" ) } ['onum' ('latn' <'dflt' > ) ]
Lookup: 258 0 0 "'kern' Horizontal Kerning in Latin lookup 0"  {"'kern' Horizontal Kerning in Latin lookup 0 subtable"  } ['kern' ('latn' <'dflt' > ) ]
MarkAttachClasses: 1
DEI: 91125
TtTable: prep
PUSHW_1
 511
SCANCTRL
PUSHB_1
 4
SCANTYPE
EndTTInstrs
LangName: 1033 "" "" "" "" "" "Version 1.000" "" "" "" "Jonathan Pinhorn" "" "" "jonpinhorn.com" "This Font Software is licensed under the SIL Open Font License, Version 1.1." "http://scripts.sil.org/OFL" 
GaspTable: 1 65535 3 0

StartChar: comma
Encoding: 44 44 4
Width: 210
Flags: W
LayerCount: 2
Fore
SplineSet
67 10 m 128,-1,1
 52 23 52 23 52 45 c 128,-1,2
 52 67 52 67 67.5 82 c 128,-1,3
 83 97 83 97 111.5 97 c 128,-1,4
 140 97 140 97 159 74.5 c 128,-1,5
 178 52 178 52 178 18 c 128,-1,6
 178 -16 178 -16 156 -51.5 c 128,-1,7
 134 -87 134 -87 89 -109 c 1,8,-1
 30 -80 l 1,9,10
 92 -50 92 -50 105 -5 c 1,11,0
 82 -3 82 -3 67 10 c 128,-1,1
EndSplineSet
EndChar

StartChar: period
Encoding: 46 46 5
Width: 179
Flags: W
LayerCount: 2
Fore
SplineSet
46.5 7.5 m 128,-1,1
 30 24 30 24 30 47.5 c 128,-1,2
 30 71 30 71 46.5 87.5 c 128,-1,3
 63 104 63 104 88.5 104 c 128,-1,4
 114 104 114 104 131 87.5 c 128,-1,5
 148 71 148 71 148 47.5 c 128,-1,6
 148 24 148 24 131 7.5 c 128,-1,7
 114 -9 114 -9 88.5 -9 c 128,-1,0
 63 -9 63 -9 46.5 7.5 c 128,-1,1
EndSplineSet
EndChar

StartChar: semicolon
Encoding: 59 59 6
Width: 262
Flags: W
LayerCount: 2
Fore
SplineSet
98.5 345.5 m 128,-1,1
 82 362 82 362 82 385.5 c 128,-1,2
 82 409 82 409 98.5 425.5 c 128,-1,3
 115 442 115 442 140.5 442 c 128,-1,4
 166 442 166 442 183 425.5 c 128,-1,5
 200 409 200 409 200 385.5 c 128,-1,6
 200 362 200 362 183 345.5 c 128,-1,7
 166 329 166 329 140.5 329 c 128,-1,0
 115 329 115 329 98.5 345.5 c 128,-1,1
94 10 m 128,-1,9
 79 23 79 23 79 45 c 128,-1,10
 79 67 79 67 94.5 82 c 128,-1,11
 110 97 110 97 138.5 97 c 128,-1,12
 167 97 167 97 186 74.5 c 128,-1,13
 205 52 205 52 205 18 c 128,-1,14
 205 -16 205 -16 183 -51.5 c 128,-1,15
 161 -87 161 -87 116 -109 c 1,16,-1
 57 -80 l 1,17,18
 119 -50 119 -50 132 -5 c 1,19,8
 109 -3 109 -3 94 10 c 128,-1,9
EndSplineSet
EndChar

StartChar: colon
Encoding: 58 58 7
Width: 231
Flags: W
LayerCount: 2
Fore
SplineSet
72.5 345.5 m 128,-1,1
 56 362 56 362 56 385.5 c 128,-1,2
 56 409 56 409 72.5 425.5 c 128,-1,3
 89 442 89 442 114.5 442 c 128,-1,4
 140 442 140 442 157 425.5 c 128,-1,5
 174 409 174 409 174 385.5 c 128,-1,6
 174 362 174 362 157 345.5 c 128,-1,7
 140 329 140 329 114.5 329 c 128,-1,0
 89 329 89 329 72.5 345.5 c 128,-1,1
72.5 39.5 m 128,-1,9
 56 56 56 56 56 79.5 c 128,-1,10
 56 103 56 103 72.5 119.5 c 128,-1,11
 89 136 89 136 114.5 136 c 128,-1,12
 140 136 140 136 157 119.5 c 128,-1,13
 174 103 174 103 174 79.5 c 128,-1,14
 174 56 174 56 157 39.5 c 128,-1,15
 140 23 140 23 114.5 23 c 128,-1,8
 89 23 89 23 72.5 39.5 c 128,-1,9
EndSplineSet
EndChar

StartChar: hyphen
Encoding: 45 45 8
Width: 349
Flags: W
LayerCount: 2
Fore
SplineSet
38 325 m 1,0,-1
 310 325 l 1,1,-1
 310 257 l 1,2,-1
 38 257 l 1,3,-1
 38 325 l 1,0,-1
EndSplineSet
EndChar

StartChar: endash
Encoding: 8211 8211 9
Width: 474
Flags: W
LayerCount: 2
Fore
SplineSet
55 325 m 1,0,-1
 419 325 l 1,1,-1
 419 257 l 1,2,-1
 55 257 l 1,3,-1
 55 325 l 1,0,-1
EndSplineSet
EndChar

StartChar: emdash
Encoding: 8212 8212 10
Width: 726
Flags: W
LayerCount: 2
Fore
SplineSet
55 325 m 1,0,-1
 671 325 l 1,1,-1
 671 257 l 1,2,-1
 55 257 l 1,3,-1
 55 325 l 1,0,-1
EndSplineSet
EndChar

StartChar: exclam
Encoding: 33 33 11
Width: 278
Flags: W
LayerCount: 2
Fore
SplineSet
98.5 7.5 m 128,-1,1
 82 24 82 24 82 47.5 c 128,-1,2
 82 71 82 71 98.5 87.5 c 128,-1,3
 115 104 115 104 140.5 104 c 128,-1,4
 166 104 166 104 183.5 87.5 c 128,-1,5
 201 71 201 71 201 47.5 c 128,-1,6
 201 24 201 24 183.5 7.5 c 128,-1,7
 166 -9 166 -9 140.5 -9 c 128,-1,0
 115 -9 115 -9 98.5 7.5 c 128,-1,1
99 627 m 1,8,-1
 182 627 l 1,9,-1
 173 176 l 1,10,-1
 109 176 l 1,11,-1
 99 627 l 1,8,-1
EndSplineSet
EndChar

StartChar: a
Encoding: 97 97 12
Width: 560
Flags: W
LayerCount: 2
Fore
SplineSet
397 199 m 1,0,1
 326 219 326 219 273 219 c 128,-1,2
 220 219 220 219 187 200 c 128,-1,3
 154 181 154 181 154 140 c 0,4,5
 154 50 154 50 256 50 c 0,6,7
 314 50 314 50 355.5 91.5 c 128,-1,8
 397 133 397 133 397 199 c 1,0,1
397 310 m 2,9,10
 397 375 397 375 370 403 c 128,-1,11
 343 431 343 431 291.5 431 c 128,-1,12
 240 431 240 431 208.5 410.5 c 128,-1,13
 177 390 177 390 177 346 c 1,14,-1
 90 346 l 1,15,16
 90 456 90 456 208 482 c 0,17,18
 244 490 244 490 286 490 c 0,19,20
 375 490 375 490 425 445 c 128,-1,21
 475 400 475 400 475 308 c 2,22,-1
 475 0 l 1,23,-1
 407 0 l 1,24,-1
 399 80 l 1,25,26
 355 -11 355 -11 240 -11 c 0,27,28
 162 -11 162 -11 116 32 c 128,-1,29
 70 75 70 75 70 139 c 128,-1,30
 70 203 70 203 122 239 c 0,31,32
 173 275 173 275 250 275 c 128,-1,33
 327 275 327 275 397 249 c 1,34,-1
 397 310 l 2,9,10
EndSplineSet
EndChar

StartChar: b
Encoding: 98 98 13
Width: 584
Flags: W
LayerCount: 2
Fore
SplineSet
219.735 383.27 m 128,-1,1
 181.956 346.54 181.956 346.54 180 282 c 1,2,-1
 180 204 l 2,3,4
 180 138 180 138 219.5 98.5 c 128,-1,5
 259 59 259 59 315.128 59 c 128,-1,6
 371.255 59 371.255 59 412.128 108.256 c 128,-1,7
 453 157.513 453 157.513 453 240 c 128,-1,8
 453 322.487 453 322.487 412.543 371.244 c 128,-1,9
 372.085 420 372.085 420 314.8 420 c 128,-1,0
 257.514 420 257.514 420 219.735 383.27 c 128,-1,1
180 407 m 1,10,11
 227.725 490 227.725 490 319.777 490 c 128,-1,12
 411.828 490 411.828 490 472.914 421.412 c 128,-1,13
 534 352.825 534 352.825 534 240.429 c 128,-1,14
 534 128.034 534 128.034 471.856 58.5169 c 128,-1,15
 409.712 -11 409.712 -11 321 -11 c 0,16,17
 273 -11 273 -11 234.5 13 c 128,-1,18
 196 37 196 37 174 84 c 1,19,-1
 156 0 l 1,20,-1
 101 0 l 1,21,-1
 101 681 l 1,22,-1
 180 681 l 1,23,-1
 180 407 l 1,10,11
EndSplineSet
EndChar

StartChar: c
Encoding: 99 99 14
Width: 515
Flags: W
LayerCount: 2
Fore
SplineSet
395.128 446.513 m 128,-1,1
 444.827 403.026 444.827 403.026 460 338 c 1,2,-1
 380 331 l 1,3,4
 367 373 367 373 338 396.5 c 128,-1,5
 309 420 309 420 274.5 420 c 0,6,7
 209.911 420 209.911 420 170.456 372.014 c 128,-1,8
 131 324.027 131 324.027 131 241.722 c 128,-1,9
 131 159.417 131 159.417 169.457 109.208 c 128,-1,10
 207.915 59 207.915 59 265.457 59 c 128,-1,11
 323 59 323 59 351.5 85.5 c 128,-1,12
 380 112 380 112 380 161 c 1,13,-1
 461 161 l 1,14,15
 461 83.8235 461 83.8235 407.267 36.4118 c 128,-1,16
 353.533 -11 353.533 -11 268 -11 c 0,17,18
 177.308 -11 177.308 -11 113.654 57.9583 c 128,-1,19
 50 126.917 50 126.917 50 241.292 c 128,-1,20
 50 355.667 50 355.667 112.969 422.833 c 128,-1,21
 175.938 490 175.938 490 260.683 490 c 128,-1,0
 345.429 490 345.429 490 395.128 446.513 c 128,-1,1
EndSplineSet
EndChar

StartChar: d
Encoding: 100 100 15
Width: 594
Flags: W
LayerCount: 2
Fore
SplineSet
180.702 370.895 m 128,-1,1
 141 321.789 141 321.789 141 240 c 128,-1,2
 141 158.211 141 158.211 181.106 108.605 c 128,-1,3
 221.213 59 221.213 59 277.092 59 c 128,-1,4
 332.971 59 332.971 59 372.529 96.4191 c 128,-1,5
 412.086 133.838 412.086 133.838 414 197 c 1,6,-1
 414 275 l 2,7,8
 414 342 414 342 375 381 c 128,-1,9
 336 420 336 420 278.202 420 c 128,-1,0
 220.404 420 220.404 420 180.702 370.895 c 128,-1,1
414 407 m 1,10,-1
 414 681 l 1,11,-1
 492 681 l 1,12,-1
 492 0 l 1,13,-1
 428 0 l 1,14,-1
 418 80 l 1,15,16
 395 35 395 35 357 12 c 128,-1,17
 319 -11 319 -11 274 -11 c 0,18,19
 182.758 -11 182.758 -11 121.379 58.8448 c 128,-1,20
 60 128.69 60 128.69 60 241.319 c 128,-1,21
 60 353.947 60 353.947 120.586 421.974 c 128,-1,22
 181.172 490 181.172 490 273.723 490 c 128,-1,23
 366.275 490 366.275 490 414 407 c 1,10,-1
EndSplineSet
EndChar

StartChar: e
Encoding: 101 101 16
Width: 515
Flags: W
LayerCount: 2
Fore
SplineSet
323.5 415 m 0,0,1
 301 427 301 427 268.5 427 c 0,2,3
 206.55 427 206.55 427 171.388 385.633 c 128,-1,4
 136.227 344.267 136.227 344.267 130 282 c 1,5,-1
 385 282 l 1,6,7
 385 382.2 385 382.2 323.5 415 c 0,0,1
266 53 m 0,8,9
 365.159 53 365.159 53 379 140 c 1,10,-1
 460 140 l 1,11,12
 449 68 449 68 396.5 28.5 c 128,-1,13
 344 -11 344 -11 266 -11 c 0,14,15
 169.815 -11 169.815 -11 109.908 57.3158 c 128,-1,16
 50 125.632 50 125.632 50 239.885 c 128,-1,17
 50 354.138 50 354.138 110.615 422.069 c 128,-1,18
 171.231 490 171.231 490 271.642 490 c 128,-1,19
 372.054 490 372.054 490 421.453 412.223 c 128,-1,20
 470.851 334.447 470.851 334.447 456 222 c 1,21,-1
 129 222 l 1,22,23
 129 147.824 129 147.824 164.822 100.412 c 128,-1,24
 200.644 53 200.644 53 266 53 c 0,8,9
EndSplineSet
EndChar

StartChar: f
Encoding: 102 102 17
Width: 343
Flags: W
LayerCount: 2
Fore
SplineSet
333 614 m 1,0,1
 300.5 627 300.5 627 281.25 627 c 0,2,3
 246.235 627 246.235 627 226.118 609.9 c 128,-1,4
 206 592.8 206 592.8 206 550 c 2,5,-1
 206 478 l 1,6,-1
 305 478 l 1,7,-1
 305 424 l 1,8,-1
 206 424 l 1,9,-1
 206 0 l 1,10,-1
 128 0 l 1,11,-1
 128 424 l 1,12,-1
 49 424 l 1,13,-1
 49 478 l 1,14,-1
 128 478 l 1,15,-1
 128 551 l 2,16,17
 128 622 128 622 167 655.5 c 128,-1,18
 206 689 206 689 257 689 c 128,-1,19
 308 689 308 689 347 676 c 1,20,-1
 333 614 l 1,0,1
EndSplineSet
EndChar

StartChar: g
Encoding: 103 103 18
Width: 565
Flags: W
LayerCount: 2
Fore
SplineSet
369 400.5 m 128,-1,1
 338 433 338 433 283.5 433 c 128,-1,2
 229 433 229 433 198 400.5 c 128,-1,3
 167 368 167 368 167 316 c 128,-1,4
 167 264 167 264 198.5 230.5 c 128,-1,5
 230 197 230 197 284 197 c 128,-1,6
 338 197 338 197 369 231 c 128,-1,7
 400 265 400 265 400 316.5 c 128,-1,0
 400 368 400 368 369 400.5 c 128,-1,1
106 -90 m 128,-1,9
 106 -128 106 -128 147.5 -155.5 c 128,-1,10
 189 -183 189 -183 273.412 -183 c 128,-1,11
 357.824 -183 357.824 -183 414.412 -146.698 c 128,-1,12
 471 -110.396 471 -110.396 471 -61 c 0,13,14
 471 -38 471 -38 454.5 -21.5 c 128,-1,15
 438 -5 438 -5 404 -5 c 2,16,-1
 211 -5 l 1,17,18
 160 -7 160 -7 133 -29.5 c 128,-1,8
 106 -52 106 -52 106 -90 c 128,-1,9
121 15 m 1,19,20
 61 43.9655 61 43.9655 61 104.5 c 0,21,22
 61 135 61 135 84.5 158.5 c 128,-1,23
 108 182 108 182 143 190 c 1,24,25
 89 237.769 89 237.769 89 316 c 128,-1,26
 89 394.038 89 394.038 144.444 442.019 c 128,-1,27
 199.889 490 199.889 490 275.974 490 c 128,-1,28
 352.059 490 352.059 490 405 454 c 1,29,30
 412 507 412 507 447.5 539 c 128,-1,31
 483 571 483 571 541 571 c 1,32,-1
 534 493 l 1,33,34
 445.895 493 445.895 493 442 419 c 1,35,36
 477 375.765 477 375.765 477 316 c 0,37,38
 477 238.604 477 238.604 421.404 189.302 c 128,-1,39
 365.809 140 365.809 140 283 140 c 0,40,41
 226 140 226 140 182 163 c 1,42,43
 162 159 162 159 146 144.5 c 128,-1,44
 130 130 130 130 130 105 c 0,45,46
 130 52 130 52 218 52 c 2,47,-1
 404 52 l 2,48,49
 471 52 471 52 510 23.5 c 128,-1,50
 549 -5 549 -5 549 -56 c 0,51,52
 549 -131.5 549 -131.5 472.667 -188.75 c 128,-1,53
 396.333 -246 396.333 -246 279.106 -246 c 128,-1,54
 161.878 -246 161.878 -246 94.939 -202.437 c 128,-1,55
 28 -158.873 28 -158.873 28 -93 c 0,56,57
 28 -50 28 -50 53.5 -23 c 128,-1,58
 79 4 79 4 121 15 c 1,19,20
EndSplineSet
EndChar

StartChar: h
Encoding: 104 104 19
Width: 604
Flags: W
LayerCount: 2
Fore
SplineSet
180 390 m 1,0,1
 227.917 490 227.917 490 339 490 c 0,2,3
 424 490 424 490 471.5 434 c 128,-1,4
 519 378 519 378 519 281 c 2,5,-1
 519 0 l 1,6,-1
 441 0 l 1,7,-1
 441 281 l 2,8,9
 441 350 441 350 408.5 385 c 128,-1,10
 376 420 376 420 315 420 c 128,-1,11
 254 420 254 420 217 368.5 c 128,-1,12
 180 317 180 317 180 226 c 2,13,-1
 180 0 l 1,14,-1
 101 0 l 1,15,-1
 101 681 l 1,16,-1
 180 681 l 1,17,-1
 180 390 l 1,0,1
EndSplineSet
EndChar

StartChar: i
Encoding: 105 105 20
Width: 299
Flags: W
LayerCount: 2
Fore
SplineSet
107.5 604.5 m 128,-1,1
 94 618 94 618 94 640.5 c 128,-1,2
 94 663 94 663 107.5 676.5 c 128,-1,3
 121 690 121 690 145 690 c 128,-1,4
 169 690 169 690 183.5 676.5 c 128,-1,5
 198 663 198 663 198 640.5 c 128,-1,6
 198 618 198 618 183.5 604.5 c 128,-1,7
 169 591 169 591 145 591 c 128,-1,0
 121 591 121 591 107.5 604.5 c 128,-1,1
106 479 m 1,8,-1
 185 479 l 1,9,-1
 185 0 l 1,10,-1
 106 0 l 1,11,-1
 106 479 l 1,8,-1
EndSplineSet
EndChar

StartChar: j
Encoding: 106 106 21
Width: 314
Flags: W
LayerCount: 2
Fore
SplineSet
33 -177 m 0,0,1
 121 -177 121 -177 121 -67 c 2,2,-1
 121 480 l 1,3,-1
 200 480 l 1,4,-1
 200 -67 l 2,5,6
 200 -203.857 200 -203.857 110 -236 c 0,7,8
 82 -246 82 -246 48 -246 c 0,9,10
 -14.0556 -246 -14.0556 -246 -86 -209 c 1,11,-1
 -82 -140 l 1,12,13
 -18.8824 -177 -18.8824 -177 33 -177 c 0,0,1
122.5 604.5 m 128,-1,15
 109 618 109 618 109 640.5 c 128,-1,16
 109 663 109 663 122.5 676.5 c 128,-1,17
 136 690 136 690 160 690 c 128,-1,18
 184 690 184 690 198.5 676.5 c 128,-1,19
 213 663 213 663 213 640.5 c 128,-1,20
 213 618 213 618 198.5 604.5 c 128,-1,21
 184 591 184 591 160 591 c 128,-1,14
 136 591 136 591 122.5 604.5 c 128,-1,15
EndSplineSet
EndChar

StartChar: k
Encoding: 107 107 22
Width: 564
Flags: W
LayerCount: 2
Fore
SplineSet
244 253 m 1,0,-1
 180 201 l 1,1,-1
 180 0 l 1,2,-1
 101 0 l 1,3,-1
 101 681 l 1,4,-1
 180 681 l 1,5,-1
 180 285 l 1,6,-1
 411 478 l 1,7,-1
 521 478 l 1,8,-1
 301 299 l 1,9,-1
 532 0 l 1,10,-1
 435 0 l 1,11,-1
 244 253 l 1,0,-1
EndSplineSet
EndChar

StartChar: l
Encoding: 108 108 23
Width: 280
Flags: W
LayerCount: 2
Fore
SplineSet
101 681 m 1,0,-1
 180 681 l 1,1,-1
 180 0 l 1,2,-1
 101 0 l 1,3,-1
 101 681 l 1,0,-1
EndSplineSet
EndChar

StartChar: m
Encoding: 109 109 24
Width: 935
Flags: W
LayerCount: 2
Fore
SplineSet
177 386 m 1,0,1
 223.902 490 223.902 490 338 490 c 0,2,3
 400 490 400 490 442 459.5 c 128,-1,4
 484 429 484 429 503 375 c 1,5,6
 548 490 548 490 670 490 c 0,7,8
 756 490 756 490 803 434 c 128,-1,9
 850 378 850 378 850 281 c 2,10,-1
 850 0 l 1,11,-1
 772 0 l 1,12,-1
 772 281 l 2,13,14
 772 350 772 350 739.5 385 c 128,-1,15
 707 420 707 420 646 420 c 128,-1,16
 585 420 585 420 551.5 370 c 128,-1,17
 518 320 518 320 518 232 c 2,18,-1
 518 0 l 1,19,-1
 440 0 l 1,20,-1
 440 281 l 2,21,22
 440 350 440 350 407.5 385 c 128,-1,23
 375 420 375 420 315 420 c 128,-1,24
 255 420 255 420 218 371 c 128,-1,25
 181 322 181 322 179 235 c 1,26,-1
 179 0 l 1,27,-1
 100 0 l 1,28,-1
 100 478 l 1,29,-1
 168 478 l 1,30,-1
 177 386 l 1,0,1
EndSplineSet
EndChar

StartChar: n
Encoding: 110 110 25
Width: 603
Flags: W
LayerCount: 2
Fore
SplineSet
177 386 m 1,0,1
 223.902 490 223.902 490 338 490 c 0,2,3
 423 490 423 490 470.5 434 c 128,-1,4
 518 378 518 378 518 281 c 2,5,-1
 518 0 l 1,6,-1
 440 0 l 1,7,-1
 440 281 l 2,8,9
 440 350 440 350 407.5 385 c 128,-1,10
 375 420 375 420 315 420 c 128,-1,11
 255 420 255 420 218 371 c 128,-1,12
 181 322 181 322 179 235 c 1,13,-1
 179 0 l 1,14,-1
 100 0 l 1,15,-1
 100 478 l 1,16,-1
 168 478 l 1,17,-1
 177 386 l 1,0,1
EndSplineSet
EndChar

StartChar: o
Encoding: 111 111 26
Width: 546
Flags: W
LayerCount: 2
Fore
SplineSet
380 373.5 m 128,-1,1
 344 422 344 422 274.5 422 c 128,-1,2
 205 422 205 422 168 373.5 c 128,-1,3
 131 325 131 325 131 239.5 c 128,-1,4
 131 154 131 154 166 105.5 c 128,-1,5
 201 57 201 57 270.5 57 c 128,-1,6
 340 57 340 57 378 105.5 c 128,-1,7
 416 154 416 154 416 239.5 c 128,-1,0
 416 325 416 325 380 373.5 c 128,-1,1
273 490 m 128,-1,9
 372.524 490 372.524 490 434.262 425.175 c 128,-1,10
 496 360.35 496 360.35 496 239 c 0,11,12
 496 118.65 496 118.65 434.262 53.825 c 128,-1,13
 372.524 -11 372.524 -11 273 -11 c 128,-1,14
 173.476 -11 173.476 -11 111.738 53.825 c 128,-1,15
 50 118.65 50 118.65 50 239 c 0,16,17
 50 360.35 50 360.35 111.738 425.175 c 128,-1,8
 173.476 490 173.476 490 273 490 c 128,-1,9
EndSplineSet
EndChar

StartChar: p
Encoding: 112 112 27
Width: 594
Flags: W
LayerCount: 2
Fore
SplineSet
410.25 106.963 m 128,-1,1
 453 154.927 453 154.927 453 238.707 c 128,-1,2
 453 322.487 453 322.487 412.543 371.244 c 128,-1,3
 372.085 420 372.085 420 314.285 420 c 128,-1,4
 256.486 420 256.486 420 219.19 383.74 c 128,-1,5
 181.893 347.48 181.893 347.48 180 285 c 1,6,-1
 180 194 l 2,7,8
 180 130.833 180 130.833 218.029 94.9167 c 128,-1,9
 256.059 59 256.059 59 311.779 59 c 128,-1,0
 367.5 59 367.5 59 410.25 106.963 c 128,-1,1
175 405 m 1,10,11
 221.548 490 221.548 490 315.343 490 c 128,-1,12
 409.138 490 409.138 490 471.569 421.22 c 128,-1,13
 534 352.441 534 352.441 534 239.179 c 128,-1,14
 534 125.917 534 125.917 470.808 57.4583 c 128,-1,15
 407.615 -11 407.615 -11 315.808 -11 c 128,-1,16
 224 -11 224 -11 180 58 c 1,17,-1
 180 -235 l 1,18,-1
 101 -235 l 1,19,-1
 101 478 l 1,20,-1
 166 478 l 1,21,-1
 175 405 l 1,10,11
EndSplineSet
EndChar

StartChar: q
Encoding: 113 113 28
Width: 584
Flags: W
LayerCount: 2
Fore
SplineSet
172.457 371.244 m 128,-1,1
 132 322.487 132 322.487 132 238.707 c 128,-1,2
 132 154.927 132 154.927 174.75 106.963 c 128,-1,3
 217.5 59 217.5 59 275 59 c 0,4,5
 357.021 59 357.021 59 392.5 131.5 c 0,6,7
 404 155 404 155 405 187 c 1,8,-1
 405 278 l 2,9,10
 405 344 405 344 367 382 c 128,-1,11
 329 420 329 420 270.957 420 c 128,-1,0
 212.915 420 212.915 420 172.457 371.244 c 128,-1,1
405 76 m 1,12,13
 363.571 -11 363.571 -11 270.478 -11 c 128,-1,14
 177.385 -11 177.385 -11 114.192 57.4583 c 128,-1,15
 51 125.917 51 125.917 51 239.179 c 128,-1,16
 51 352.441 51 352.441 113.431 421.22 c 128,-1,17
 175.862 490 175.862 490 264 490 c 0,18,19
 366 490 366 490 412 400 c 1,20,-1
 429 478 l 1,21,-1
 483 478 l 1,22,-1
 483 -235 l 1,23,-1
 405 -235 l 1,24,-1
 405 76 l 1,12,13
EndSplineSet
EndChar

StartChar: r
Encoding: 114 114 29
Width: 381
Flags: W
LayerCount: 2
Fore
SplineSet
296 411 m 0,0,1
 183.341 411 183.341 411 179 233 c 1,2,-1
 179 0 l 1,3,-1
 100 0 l 1,4,-1
 100 479 l 1,5,-1
 179 479 l 1,6,-1
 179 387 l 1,7,8
 215 487 215 487 306 487 c 0,9,10
 335 487 335 487 361 478 c 1,11,-1
 357 401 l 1,12,13
 327 411 327 411 296 411 c 0,0,1
EndSplineSet
EndChar

StartChar: s
Encoding: 115 115 30
Width: 526
Flags: W
LayerCount: 2
Fore
SplineSet
126.5 455 m 128,-1,1
 177 490 177 490 263 490 c 128,-1,2
 349 490 349 490 397.5 454 c 128,-1,3
 446 418 446 418 448 363 c 1,4,-1
 371 363 l 1,5,6
 362 428 362 428 261 428 c 0,7,8
 212 428 212 428 185.5 406 c 128,-1,9
 159 384 159 384 159 358.5 c 128,-1,10
 159 333 159 333 179 315.5 c 128,-1,11
 199 298 199 298 243 285 c 1,12,-1
 339 253 l 1,13,14
 400 234 400 234 432.5 204.5 c 128,-1,15
 465 175 465 175 465 123.53 c 128,-1,16
 465 72.06 465 72.06 411.756 30.53 c 128,-1,17
 358.513 -11 358.513 -11 263.756 -11 c 128,-1,18
 169 -11 169 -11 116 31.5 c 128,-1,19
 63 74 63 74 60 141 c 1,20,-1
 136 141 l 1,21,22
 138 96 138 96 172.5 73.5 c 128,-1,23
 207 51 207 51 259.2 51 c 128,-1,24
 311.4 51 311.4 51 345.2 72.8064 c 128,-1,25
 379 94.6129 379 94.6129 379 125.306 c 128,-1,26
 379 156 379 156 359 172 c 128,-1,27
 339 188 339 188 294 200 c 1,28,-1
 201 231 l 1,29,30
 76 268 76 268 76 361 c 0,31,0
 76 420 76 420 126.5 455 c 128,-1,1
EndSplineSet
EndChar

StartChar: t
Encoding: 116 116 31
Width: 376
Flags: W
LayerCount: 2
Fore
SplineSet
351 14 m 1,0,1
 264.965 -25.7087 264.965 -25.7087 194 -3 c 0,2,3
 142.752 13.3993 142.752 13.3993 121.5 64 c 0,4,5
 111 89 111 89 111 124 c 2,6,-1
 111 418 l 1,7,-1
 34 418 l 1,8,-1
 34 478 l 1,9,-1
 111 478 l 1,10,-1
 111 611 l 1,11,-1
 189 611 l 1,12,-1
 189 478 l 1,13,-1
 339 478 l 1,14,-1
 339 418 l 1,15,-1
 189 418 l 1,16,-1
 189 125 l 2,17,18
 189 52 189 52 257 52 c 0,19,20
 294 52 294 52 340 70 c 1,21,-1
 351 14 l 1,0,1
EndSplineSet
EndChar

StartChar: u
Encoding: 117 117 32
Width: 606
Flags: W
LayerCount: 2
Fore
SplineSet
426 95 m 1,0,1
 377.059 -9 377.059 -9 267 -9 c 0,2,3
 186 -9 186 -9 136.5 36 c 128,-1,4
 87 81 87 81 87 175 c 2,5,-1
 87 479 l 1,6,-1
 166 479 l 1,7,-1
 166 181 l 2,8,9
 166 60 166 60 278 60 c 0,10,11
 342.875 60 342.875 60 383.5 110 c 128,-1,12
 423.996 159.841 423.996 159.841 426 238 c 1,13,-1
 426 479 l 1,14,-1
 505 479 l 1,15,-1
 505 0 l 1,16,-1
 426 0 l 1,17,-1
 426 95 l 1,0,1
EndSplineSet
EndChar

StartChar: v
Encoding: 118 118 33
Width: 503
Flags: W
LayerCount: 2
Fore
SplineSet
107 478 m 1,0,-1
 251 83 l 1,1,-1
 396 478 l 1,2,-1
 485 478 l 1,3,-1
 295 0 l 1,4,-1
 208 0 l 1,5,-1
 18 478 l 1,6,-1
 107 478 l 1,0,-1
EndSplineSet
EndChar

StartChar: w
Encoding: 119 119 34
Width: 725
Flags: W
LayerCount: 2
Fore
SplineSet
100 478 m 1,0,-1
 216 97 l 1,1,-1
 330 455 l 1,2,-1
 396 455 l 1,3,-1
 509 93 l 1,4,-1
 626 478 l 1,5,-1
 704 478 l 1,6,-1
 548 0 l 1,7,-1
 471 0 l 1,8,-1
 361 335 l 1,9,-1
 253 0 l 1,10,-1
 177 0 l 1,11,-1
 18 478 l 1,12,-1
 100 478 l 1,0,-1
EndSplineSet
EndChar

StartChar: x
Encoding: 120 120 35
Width: 512
Flags: W
LayerCount: 2
Fore
SplineSet
485 0 m 1,0,-1
 389 0 l 1,1,-1
 252 181 l 1,2,-1
 122 0 l 1,3,-1
 26 0 l 1,4,-1
 207 239 l 1,5,-1
 26 479 l 1,6,-1
 122 479 l 1,7,-1
 259 299 l 1,8,-1
 390 479 l 1,9,-1
 486 479 l 1,10,-1
 303 239 l 1,11,-1
 485 0 l 1,0,-1
EndSplineSet
EndChar

StartChar: y
Encoding: 121 121 36
Width: 484
Flags: W
LayerCount: 2
Fore
SplineSet
5 -139 m 1,0,1
 54.4 -177 54.4 -177 108 -177 c 0,2,3
 148.111 -177 148.111 -177 177 -137 c 0,4,5
 197.688 -108.355 197.688 -108.355 215 -49 c 2,6,-1
 229 0 l 1,7,-1
 33 478 l 1,8,-1
 121 478 l 1,9,-1
 266 97 l 1,10,-1
 379 478 l 1,11,-1
 459 478 l 1,12,-1
 280 -95 l 2,13,14
 257 -168 257 -168 219.5 -207 c 128,-1,15
 182 -246 182 -246 124.382 -246 c 128,-1,16
 66.7647 -246 66.7647 -246 5 -211 c 1,17,-1
 5 -139 l 1,0,1
EndSplineSet
EndChar

StartChar: z
Encoding: 122 122 37
Width: 475
Flags: W
LayerCount: 2
Fore
SplineSet
53 64 m 1,0,-1
 334 414 l 1,1,-1
 53 414 l 1,2,-1
 53 478 l 1,3,-1
 423 478 l 1,4,-1
 423 414 l 1,5,-1
 146 64 l 1,6,-1
 423 64 l 1,7,-1
 423 0 l 1,8,-1
 53 0 l 1,9,-1
 53 64 l 1,0,-1
EndSplineSet
EndChar

StartChar: A
Encoding: 65 65 38
Width: 575
Flags: W
LayerCount: 2
Fore
SplineSet
184 222 m 1,0,-1
 393 222 l 1,1,-1
 289 532 l 1,2,-1
 184 222 l 1,0,-1
242 629 m 1,3,-1
 338 629 l 1,4,-1
 549 0 l 1,5,-1
 467 0 l 1,6,-1
 413 160 l 1,7,-1
 163 160 l 1,8,-1
 109 0 l 1,9,-1
 26 0 l 1,10,-1
 242 629 l 1,3,-1
EndSplineSet
EndChar

StartChar: B
Encoding: 66 66 39
Width: 622
Flags: W
LayerCount: 2
Fore
SplineSet
180 348 m 1,0,-1
 334 348 l 2,1,2
 392 348 392 348 426.5 376.5 c 128,-1,3
 461 405 461 405 461 455 c 128,-1,4
 461 505 461 505 427.5 533 c 128,-1,5
 394 561 394 561 334 561 c 2,6,-1
 180 561 l 1,7,-1
 180 348 l 1,0,-1
335 69 m 2,8,9
 407 69 407 69 438 98 c 128,-1,10
 469 127 469 127 469 175 c 128,-1,11
 469 223 469 223 435 251.5 c 128,-1,12
 401 280 401 280 335 280 c 2,13,-1
 180 280 l 1,14,-1
 180 69 l 1,15,-1
 335 69 l 2,8,9
101 629 m 1,16,-1
 336 629 l 2,17,18
 435.4 629 435.4 629 488.7 581.971 c 128,-1,19
 542 534.941 542 534.941 542 464 c 0,20,21
 542 410 542 410 512.5 370 c 128,-1,22
 483 330 483 330 423 316 c 1,23,24
 481.815 305.86 481.815 305.86 517.407 265.033 c 128,-1,25
 553 224.206 553 224.206 553 172 c 0,26,27
 553 56.0241 553 56.0241 439.5 15 c 0,28,29
 398 0 398 0 337 0 c 2,30,-1
 101 0 l 1,31,-1
 101 629 l 1,16,-1
EndSplineSet
EndChar

StartChar: C
Encoding: 67 67 40
Width: 613
Flags: W
LayerCount: 2
Fore
SplineSet
319 640 m 0,0,1
 420 640 420 640 481.5 589.5 c 128,-1,2
 543 539 543 539 566 458 c 1,3,-1
 481 441 l 1,4,5
 461 500 461 500 418.5 534.5 c 128,-1,6
 376 569 376 569 319 569 c 0,7,8
 240.397 569 240.397 569 188.198 503.23 c 128,-1,9
 136 437.46 136 437.46 136 319.863 c 128,-1,10
 136 202.267 136 202.267 182.391 131.133 c 128,-1,11
 228.783 60 228.783 60 319 60 c 0,12,13
 394 60 394 60 437.5 99.5 c 128,-1,14
 481 139 481 139 481 204 c 1,15,-1
 566 204 l 1,16,17
 566 105.015 566 105.015 498.67 47.0077 c 128,-1,18
 431.339 -11 431.339 -11 313.425 -11 c 128,-1,19
 195.512 -11 195.512 -11 123.256 79.058 c 128,-1,20
 51 169.116 51 169.116 51 319.995 c 128,-1,21
 51 470.875 51 470.875 126.167 555.438 c 128,-1,22
 201.333 640 201.333 640 319 640 c 0,0,1
EndSplineSet
EndChar

StartChar: D
Encoding: 68 68 41
Width: 661
Flags: W
LayerCount: 2
Fore
SplineSet
179 69 m 1,0,-1
 285 69 l 2,1,2
 389.924 69 389.924 69 451.962 138.398 c 128,-1,3
 514 207.797 514 207.797 514 315 c 0,4,5
 514 421.746 514 421.746 451.708 490.373 c 128,-1,6
 389.415 559 389.415 559 285 559 c 2,7,-1
 179 559 l 1,8,-1
 179 69 l 1,0,-1
285 629 m 2,9,10
 427 629 427 629 512.5 543.5 c 128,-1,11
 598 458 598 458 598 314.5 c 128,-1,12
 598 171 598 171 512.5 85.5 c 128,-1,13
 427 0 427 0 285 0 c 2,14,-1
 100 0 l 1,15,-1
 100 629 l 1,16,-1
 285 629 l 2,9,10
EndSplineSet
EndChar

StartChar: E
Encoding: 69 69 42
Width: 562
Flags: W
LayerCount: 2
Fore
SplineSet
100 629 m 1,0,-1
 487 629 l 1,1,-1
 487 561 l 1,2,-1
 179 561 l 1,3,-1
 179 350 l 1,4,-1
 469 350 l 1,5,-1
 469 283 l 1,6,-1
 179 283 l 1,7,-1
 179 69 l 1,8,-1
 487 69 l 1,9,-1
 487 0 l 1,10,-1
 100 0 l 1,11,-1
 100 629 l 1,0,-1
EndSplineSet
EndChar

StartChar: F
Encoding: 70 70 43
Width: 524
Flags: W
LayerCount: 2
Fore
SplineSet
101 629 m 1,0,-1
 483 629 l 1,1,-1
 483 561 l 1,2,-1
 180 561 l 1,3,-1
 180 352 l 1,4,-1
 462 352 l 1,5,-1
 462 284 l 1,6,-1
 180 284 l 1,7,-1
 180 0 l 1,8,-1
 101 0 l 1,9,-1
 101 629 l 1,0,-1
EndSplineSet
EndChar

StartChar: G
Encoding: 71 71 44
Width: 645
Flags: W
LayerCount: 2
Fore
SplineSet
490 108 m 1,0,1
 448.246 -11 448.246 -11 326.972 -11 c 128,-1,2
 205.699 -11 205.699 -11 128.349 76.9452 c 128,-1,3
 51 164.89 51 164.89 51 314.075 c 128,-1,4
 51 463.259 51 463.259 135.732 551.13 c 128,-1,5
 220.464 639 220.464 639 346 639 c 0,6,7
 420 639 420 639 475.5 609 c 128,-1,8
 531 579 531 579 571 513 c 1,9,-1
 495 487 l 1,10,11
 430 568 430 568 342.813 568 c 128,-1,12
 255.627 568 255.627 568 195.313 497.105 c 128,-1,13
 135 426.211 135 426.211 135 312.425 c 128,-1,14
 135 198.64 135 198.64 187.136 129.82 c 128,-1,15
 239.259 61 239.259 61 326.972 61 c 0,16,17
 398.943 61 398.943 61 442.979 109.116 c 128,-1,18
 487 157.233 487 157.233 487 251 c 2,19,-1
 487 253 l 1,20,-1
 329 259 l 1,21,-1
 329 311 l 1,22,-1
 564 311 l 1,23,-1
 564 0 l 1,24,-1
 500 0 l 1,25,-1
 490 108 l 1,0,1
EndSplineSet
EndChar

StartChar: H
Encoding: 72 72 45
Width: 669
Flags: W
LayerCount: 2
Fore
SplineSet
180 629 m 1,0,-1
 180 352 l 1,1,-1
 489 352 l 1,2,-1
 489 629 l 1,3,-1
 568 629 l 1,4,-1
 568 0 l 1,5,-1
 489 0 l 1,6,-1
 489 284 l 1,7,-1
 180 284 l 1,8,-1
 180 0 l 1,9,-1
 101 0 l 1,10,-1
 101 629 l 1,11,-1
 180 629 l 1,0,-1
EndSplineSet
EndChar

StartChar: I
Encoding: 73 73 46
Width: 280
Flags: W
LayerCount: 2
Fore
SplineSet
101 629 m 1,0,-1
 180 629 l 1,1,-1
 180 0 l 1,2,-1
 101 0 l 1,3,-1
 101 629 l 1,0,-1
EndSplineSet
EndChar

StartChar: J
Encoding: 74 74 47
Width: 404
Flags: W
LayerCount: 2
Fore
SplineSet
277.5 34 m 128,-1,1
 231 -11 231 -11 159.167 -11 c 128,-1,2
 87.3333 -11 87.3333 -11 8 31 c 1,3,-1
 8 113 l 1,4,5
 78 65 78 65 139.5 65 c 128,-1,6
 201 65 201 65 223 95 c 128,-1,7
 245 125 245 125 245 182 c 2,8,-1
 245 629 l 1,9,-1
 324 629 l 1,10,-1
 324 182 l 2,11,0
 324 79 324 79 277.5 34 c 128,-1,1
EndSplineSet
EndChar

StartChar: K
Encoding: 75 75 48
Width: 609
Flags: W
LayerCount: 2
Fore
SplineSet
181 629 m 1,0,-1
 181 338 l 1,1,-1
 462 629 l 1,2,-1
 571 629 l 1,3,-1
 296 346 l 1,4,-1
 588 0 l 1,5,-1
 486 0 l 1,6,-1
 243 291 l 1,7,-1
 181 227 l 1,8,-1
 181 0 l 1,9,-1
 101 0 l 1,10,-1
 101 629 l 1,11,-1
 181 629 l 1,0,-1
EndSplineSet
EndChar

StartChar: L
Encoding: 76 76 49
Width: 468
Flags: W
LayerCount: 2
Fore
SplineSet
180 69 m 1,0,-1
 460 69 l 1,1,-1
 460 0 l 1,2,-1
 101 0 l 1,3,-1
 101 629 l 1,4,-1
 180 629 l 1,5,-1
 180 69 l 1,0,-1
EndSplineSet
EndChar

StartChar: M
Encoding: 77 77 50
Width: 848
Flags: W
LayerCount: 2
Fore
SplineSet
214 629 m 1,0,-1
 426 203 l 1,1,-1
 636 629 l 1,2,-1
 747 629 l 1,3,-1
 747 0 l 1,4,-1
 668 0 l 1,5,-1
 668 517 l 1,6,-1
 452 79 l 1,7,-1
 399 79 l 1,8,-1
 180 524 l 1,9,-1
 180 0 l 1,10,-1
 101 0 l 1,11,-1
 101 629 l 1,12,-1
 214 629 l 1,0,-1
EndSplineSet
EndChar

StartChar: N
Encoding: 78 78 51
Width: 685
Flags: W
LayerCount: 2
Fore
SplineSet
193 629 m 1,0,-1
 505 124 l 1,1,-1
 505 629 l 1,2,-1
 584 629 l 1,3,-1
 584 0 l 1,4,-1
 496 0 l 1,5,-1
 179 512 l 1,6,-1
 179 0 l 1,7,-1
 99 0 l 1,8,-1
 99 629 l 1,9,-1
 193 629 l 1,0,-1
EndSplineSet
EndChar

StartChar: O
Encoding: 79 79 52
Width: 646
Flags: W
LayerCount: 2
Fore
SplineSet
323 569 m 128,-1,1
 235 569 235 569 184 503 c 128,-1,2
 133 437 133 437 133 313 c 128,-1,3
 133 189 133 189 184 125 c 128,-1,4
 235 61 235 61 323 61 c 128,-1,5
 411 61 411 61 462.5 125 c 128,-1,6
 514 189 514 189 514 313 c 128,-1,7
 514 437 514 437 462.5 503 c 128,-1,0
 411 569 411 569 323 569 c 128,-1,1
323 640 m 0,8,9
 445.049 640 445.049 640 520.525 556.253 c 128,-1,10
 596 472.507 596 472.507 596 313.219 c 128,-1,11
 596 153.932 596 153.932 520.75 71.4658 c 128,-1,12
 445.5 -11 445.5 -11 323 -11 c 0,13,14
 199.556 -11 199.556 -11 125.278 72.5625 c 128,-1,15
 51 156.125 51 156.125 51 314 c 0,16,17
 51 472.875 51 472.875 125.278 556.438 c 128,-1,18
 199.556 640 199.556 640 323 640 c 0,8,9
EndSplineSet
EndChar

StartChar: P
Encoding: 80 80 53
Width: 554
Flags: W
LayerCount: 2
Fore
SplineSet
302 311 m 2,0,1
 367 311 367 311 400.5 344 c 128,-1,2
 434 377 434 377 434 434.5 c 128,-1,3
 434 492 434 492 400.5 526.5 c 128,-1,4
 367 561 367 561 302 561 c 2,5,-1
 178 561 l 1,6,-1
 178 311 l 1,7,-1
 302 311 l 2,0,1
460.5 576.5 m 128,-1,9
 515 524 515 524 515 435 c 128,-1,10
 515 346 515 346 460.5 294.5 c 128,-1,11
 406 243 406 243 302 243 c 2,12,-1
 178 243 l 1,13,-1
 178 0 l 1,14,-1
 99 0 l 1,15,-1
 99 629 l 1,16,-1
 302 629 l 2,17,8
 406 629 406 629 460.5 576.5 c 128,-1,9
EndSplineSet
EndChar

StartChar: Q
Encoding: 81 81 54
Width: 652
Flags: W
LayerCount: 2
Fore
SplineSet
323 569 m 128,-1,1
 235 569 235 569 184 503 c 128,-1,2
 133 437 133 437 133 313 c 128,-1,3
 133 189 133 189 184 125 c 128,-1,4
 235 61 235 61 323 61 c 128,-1,5
 411 61 411 61 462.5 125 c 128,-1,6
 514 189 514 189 514 313 c 128,-1,7
 514 437 514 437 462.5 503 c 128,-1,0
 411 569 411 569 323 569 c 128,-1,1
596 -148 m 1,8,9
 556.273 -167 556.273 -167 511.636 -167 c 0,10,11
 426.682 -167 426.682 -167 366 -78 c 1,12,-1
 319 -11 l 1,13,14
 198.486 -8.92218 198.486 -8.92218 124.743 74.0389 c 128,-1,15
 51 157 51 157 51 314.938 c 128,-1,16
 51 472.875 51 472.875 125.278 556.438 c 128,-1,17
 199.556 640 199.556 640 323 640 c 0,18,19
 445.049 640 445.049 640 520.525 556.253 c 128,-1,20
 596 472.507 596 472.507 596 314 c 0,21,22
 596 182.058 596 182.058 542.894 101.377 c 128,-1,23
 489.788 20.697 489.788 20.697 399 -2 c 1,24,-1
 430 -46 l 1,25,26
 458.545 -84.6203 458.545 -84.6203 499 -87 c 1,27,28
 541.833 -87 541.833 -87 596 -62 c 1,29,-1
 596 -148 l 1,8,9
EndSplineSet
EndChar

StartChar: R
Encoding: 82 82 55
Width: 613
Flags: W
LayerCount: 2
Fore
SplineSet
314 312 m 2,0,1
 385 312 385 312 421.5 346.5 c 128,-1,2
 458 381 458 381 458 437.5 c 128,-1,3
 458 494 458 494 422.5 527.5 c 128,-1,4
 387 561 387 561 320 561 c 2,5,-1
 180 561 l 1,6,-1
 180 312 l 1,7,-1
 314 312 l 2,0,1
497.5 323 m 128,-1,9
 456 275 456 275 375 261 c 1,10,-1
 555 0 l 1,11,-1
 453 0 l 1,12,-1
 290 257 l 1,13,-1
 180 257 l 1,14,-1
 180 0 l 1,15,-1
 101 0 l 1,16,-1
 101 629 l 1,17,-1
 320 629 l 2,18,19
 426.3 629 426.3 629 482.65 577.773 c 128,-1,20
 539 526.545 539 526.545 539 448.773 c 128,-1,8
 539 371 539 371 497.5 323 c 128,-1,9
EndSplineSet
EndChar

StartChar: S
Encoding: 83 83 56
Width: 605
Flags: W
LayerCount: 2
Fore
SplineSet
436 476 m 1,0,1
 419.273 568 419.273 568 301 568 c 0,2,3
 238 568 238 568 204 540.5 c 128,-1,4
 170 513 170 513 170 474.5 c 128,-1,5
 170 436 170 436 191 416 c 128,-1,6
 212 396 212 396 259 381 c 1,7,-1
 390 336 l 2,8,9
 457 313 457 313 496.5 273 c 128,-1,10
 536 233 536 233 536 160.5 c 128,-1,11
 536 88 536 88 474.125 38.5 c 128,-1,12
 412.25 -11 412.25 -11 308.005 -11 c 128,-1,13
 203.76 -11 203.76 -11 137.345 41.7102 c 128,-1,14
 70.9302 94.4205 70.9302 94.4205 69 189 c 1,15,-1
 146 189 l 1,16,17
 146 127.048 146 127.048 189.344 94.0238 c 128,-1,18
 232.688 61 232.688 61 301.344 61 c 128,-1,19
 370 61 370 61 410 91.5 c 128,-1,20
 450 122 450 122 450 163.5 c 128,-1,21
 450 205 450 205 425.5 229 c 128,-1,22
 401 253 401 253 353 269 c 1,23,-1
 242 310 l 1,24,25
 164 336 164 336 124 372 c 128,-1,26
 84 408 84 408 84 477.5 c 128,-1,27
 84 547 84 547 140 593.5 c 128,-1,28
 196 640 196 640 297 640 c 128,-1,29
 398 640 398 640 451.5 595.5 c 128,-1,30
 505 551 505 551 513 476 c 1,31,-1
 436 476 l 1,0,1
EndSplineSet
EndChar

StartChar: T
Encoding: 84 84 57
Width: 501
Flags: W
LayerCount: 2
Fore
SplineSet
6 629 m 1,0,-1
 495 629 l 1,1,-1
 495 561 l 1,2,-1
 290 561 l 1,3,-1
 290 0 l 1,4,-1
 211 0 l 1,5,-1
 211 561 l 1,6,-1
 6 561 l 1,7,-1
 6 629 l 1,0,-1
EndSplineSet
EndChar

StartChar: U
Encoding: 85 85 58
Width: 654
Flags: W
LayerCount: 2
Fore
SplineSet
166 629 m 1,0,-1
 166 227 l 2,1,2
 166 139 166 139 210 100 c 128,-1,3
 254 61 254 61 326 61 c 128,-1,4
 398 61 398 61 442 100 c 128,-1,5
 486 139 486 139 486 227 c 2,6,-1
 486 629 l 1,7,-1
 565 629 l 1,8,-1
 565 227 l 2,9,10
 565 109 565 109 500 49 c 128,-1,11
 435 -11 435 -11 325.5 -11 c 128,-1,12
 216 -11 216 -11 151.5 49 c 128,-1,13
 87 109 87 109 87 227 c 2,14,-1
 87 629 l 1,15,-1
 166 629 l 1,0,-1
EndSplineSet
EndChar

StartChar: V
Encoding: 86 86 59
Width: 563
Flags: W
LayerCount: 2
Fore
SplineSet
101 629 m 1,0,-1
 281 100 l 1,1,-1
 462 629 l 1,2,-1
 545 629 l 1,3,-1
 322 0 l 1,4,-1
 240 0 l 1,5,-1
 18 629 l 1,6,-1
 101 629 l 1,0,-1
EndSplineSet
EndChar

StartChar: W
Encoding: 87 87 60
Width: 895
Flags: W
LayerCount: 2
Fore
SplineSet
102 629 m 1,0,-1
 255 106 l 1,1,-1
 410 564 l 1,2,-1
 463 564 l 1,3,-1
 617 106 l 1,4,-1
 793 629 l 1,5,-1
 880 629 l 1,6,-1
 658 0 l 1,7,-1
 575 0 l 1,8,-1
 438 403 l 1,9,-1
 296 0 l 1,10,-1
 213 0 l 1,11,-1
 14 629 l 1,12,-1
 102 629 l 1,0,-1
EndSplineSet
EndChar

StartChar: X
Encoding: 88 88 61
Width: 642
Flags: W
LayerCount: 2
Fore
SplineSet
593 0 m 1,0,-1
 495 0 l 1,1,-1
 313 251 l 1,2,-1
 144 0 l 1,3,-1
 48 0 l 1,4,-1
 270 312 l 1,5,-1
 47 629 l 1,6,-1
 142 629 l 1,7,-1
 322 372 l 1,8,-1
 488 629 l 1,9,-1
 583 629 l 1,10,-1
 366 313 l 1,11,-1
 593 0 l 1,0,-1
EndSplineSet
EndChar

StartChar: Y
Encoding: 89 89 62
Width: 549
Flags: W
LayerCount: 2
Fore
SplineSet
104 629 m 1,0,-1
 273 340 l 1,1,-1
 446 629 l 1,2,-1
 539 629 l 1,3,-1
 313 258 l 1,4,-1
 313 0 l 1,5,-1
 233 0 l 1,6,-1
 233 258 l 1,7,-1
 10 629 l 1,8,-1
 104 629 l 1,0,-1
EndSplineSet
EndChar

StartChar: Z
Encoding: 90 90 63
Width: 592
Flags: W
LayerCount: 2
Fore
SplineSet
73 71 m 1,0,-1
 436 554 l 1,1,-1
 73 557 l 1,2,-1
 73 629 l 1,3,-1
 535 629 l 1,4,-1
 535 558 l 1,5,-1
 172 75 l 1,6,-1
 535 72 l 1,7,-1
 535 0 l 1,8,-1
 73 0 l 1,9,-1
 73 71 l 1,0,-1
EndSplineSet
EndChar

StartChar: quotesingle
Encoding: 39 39 64
Width: 136
Flags: W
LayerCount: 2
Fore
SplineSet
109 677 m 1,0,-1
 98 457 l 1,1,-1
 38 457 l 1,2,-1
 27 677 l 1,3,-1
 109 677 l 1,0,-1
EndSplineSet
EndChar

StartChar: apostrophe
Encoding: 700 700 65
Width: 184
Flags: W
LayerCount: 2
Fore
SplineSet
73 594 m 128,-1,1
 58 607 58 607 58 629 c 128,-1,2
 58 651 58 651 73.5 666 c 128,-1,3
 89 681 89 681 117.5 681 c 128,-1,4
 146 681 146 681 165 658.5 c 128,-1,5
 184 636 184 636 184 602 c 128,-1,6
 184 568 184 568 162 532.5 c 128,-1,7
 140 497 140 497 95 475 c 1,8,-1
 36 504 l 1,9,10
 98.4404 534.144 98.4404 534.144 111 579 c 1,11,0
 88 581 88 581 73 594 c 128,-1,1
EndSplineSet
EndChar

StartChar: quoteleft
Encoding: 8216 8216 66
Width: 214
Flags: W
LayerCount: 2
Fore
SplineSet
146.5 488.5 m 128,-1,1
 131 473 131 473 103 473 c 128,-1,2
 75 473 75 473 55.5 496 c 128,-1,3
 36 519 36 519 36 553.5 c 128,-1,4
 36 588 36 588 59.5 623.5 c 128,-1,5
 83 659 83 659 128 681 c 1,6,-1
 184 652 l 1,7,8
 121.78 619.817 121.78 619.817 109 576 c 1,9,10
 132 574 132 574 147 561 c 128,-1,11
 162 548 162 548 162 526 c 128,-1,0
 162 504 162 504 146.5 488.5 c 128,-1,1
EndSplineSet
EndChar

StartChar: quoteright
Encoding: 8217 8217 67
Width: 214
Flags: W
LayerCount: 2
Fore
SplineSet
51.998 666 m 128,-1,1
 67.998 681 67.998 681 96.498 681 c 128,-1,2
 124.998 681 124.998 681 143.498 659 c 128,-1,3
 161.998 637 161.998 637 161.998 602 c 128,-1,4
 161.998 567 161.998 567 138.498 531.5 c 128,-1,5
 114.998 496 114.998 496 70.998 473 c 1,6,-1
 14.998 503 l 1,7,8
 77.2168 535.183 77.2168 535.183 89.998 579 c 1,9,10
 66.998 581 66.998 581 51.498 594 c 128,-1,11
 35.998 607 35.998 607 35.998 629 c 128,-1,0
 35.998 651 35.998 651 51.998 666 c 128,-1,1
EndSplineSet
EndChar

StartChar: parenleft
Encoding: 40 40 68
Width: 356
Flags: W
LayerCount: 2
Fore
SplineSet
155 307 m 128,-1,1
 155 102.012 155 102.012 328 -73 c 1,2,-1
 271 -113 l 1,3,4
 173 -24 173 -24 123 84 c 128,-1,5
 73 192 73 192 73 307.5 c 128,-1,6
 73 423 73 423 123 530.5 c 128,-1,7
 173 638 173 638 271 728 c 1,8,-1
 328 687 l 1,9,0
 155 511.988 155 511.988 155 307 c 128,-1,1
EndSplineSet
EndChar

StartChar: parenright
Encoding: 41 41 69
Width: 356
Flags: W
LayerCount: 2
Fore
SplineSet
201 307 m 128,-1,1
 201 511.988 201 511.988 28 687 c 1,2,-1
 85 728 l 1,3,4
 183 638 183 638 233 530.5 c 128,-1,5
 283 423 283 423 283 307.5 c 128,-1,6
 283 192 283 192 233 84 c 128,-1,7
 183 -24 183 -24 85 -113 c 1,8,-1
 28 -73 l 1,9,0
 201 102.012 201 102.012 201 307 c 128,-1,1
EndSplineSet
EndChar

StartChar: plus
Encoding: 43 43 70
Width: 527
Flags: W
LayerCount: 2
Fore
SplineSet
303 491 m 1,0,-1
 303 279 l 1,1,-1
 509 279 l 1,2,-1
 509 212 l 1,3,-1
 303 212 l 1,4,-1
 303 0 l 1,5,-1
 224 0 l 1,6,-1
 224 212 l 1,7,-1
 18 212 l 1,8,-1
 18 279 l 1,9,-1
 224 279 l 1,10,-1
 224 491 l 1,11,-1
 303 491 l 1,0,-1
EndSplineSet
EndChar

StartChar: minus
Encoding: 8722 8722 71
Width: 488
Flags: W
LayerCount: 2
Fore
SplineSet
409 325 m 1,0,-1
 409 258 l 1,1,-1
 79 258 l 1,2,-1
 79 325 l 1,3,-1
 409 325 l 1,0,-1
EndSplineSet
EndChar

StartChar: equal
Encoding: 61 61 72
Width: 488
Flags: W
LayerCount: 2
Fore
SplineSet
409 377 m 1,0,-1
 409 308 l 1,1,-1
 79 308 l 1,2,-1
 79 377 l 1,3,-1
 409 377 l 1,0,-1
409 185 m 1,4,-1
 409 117 l 1,5,-1
 79 117 l 1,6,-1
 79 185 l 1,7,-1
 409 185 l 1,4,-1
EndSplineSet
EndChar

StartChar: zero
Encoding: 48 48 73
Width: 594
Flags: W
LayerCount: 2
Fore
SplineSet
420 502.5 m 128,-1,1
 378 568 378 568 297.5 568 c 128,-1,2
 217 568 217 568 175 502.5 c 128,-1,3
 133 437 133 437 133 314.5 c 128,-1,4
 133 192 133 192 175 126.5 c 128,-1,5
 217 61 217 61 297.5 61 c 128,-1,6
 378 61 378 61 420 126.5 c 128,-1,7
 462 192 462 192 462 314.5 c 128,-1,0
 462 437 462 437 420 502.5 c 128,-1,1
477.802 556.219 m 128,-1,9
 544 472.438 544 472.438 544 314.5 c 128,-1,10
 544 156.562 544 156.562 477.802 72.7812 c 128,-1,11
 411.605 -11 411.605 -11 297.753 -11 c 128,-1,12
 183.901 -11 183.901 -11 117.451 71.8077 c 128,-1,13
 51 154.615 51 154.615 51 314.5 c 128,-1,14
 51 474.385 51 474.385 117.451 557.192 c 128,-1,15
 183.901 640 183.901 640 297.753 640 c 128,-1,8
 411.605 640 411.605 640 477.802 556.219 c 128,-1,9
EndSplineSet
Substitution2: "'onum' Oldstyle Figures in Latin lookup 0 subtable" .notdef
EndChar

StartChar: one
Encoding: 49 49 74
Width: 331
Flags: W
LayerCount: 2
Fore
SplineSet
49 580 m 1,0,1
 116.329 588.688 116.329 588.688 166 631 c 1,2,-1
 230 631 l 1,3,-1
 230 0 l 1,4,-1
 152 0 l 1,5,-1
 152 537 l 1,6,7
 102 505 102 505 49 502 c 1,8,-1
 49 580 l 1,0,1
EndSplineSet
Substitution2: "'onum' Oldstyle Figures in Latin lookup 0 subtable" .notdef
EndChar

StartChar: two
Encoding: 50 50 75
Width: 580
Flags: W
LayerCount: 2
Fore
SplineSet
143 73 m 1,0,-1
 508 73 l 1,1,-1
 508 0 l 1,2,-1
 64 0 l 1,3,-1
 64 93 l 2,4,5
 64 203.887 64 203.887 148.5 256.5 c 0,6,7
 175 273 175 273 208 286 c 2,8,-1
 332 336 l 2,9,10
 428 374 428 374 428 461 c 0,11,12
 428 509 428 509 395 539.5 c 128,-1,13
 362 570 362 570 302.5 570 c 128,-1,14
 243 570 243 570 205.5 545 c 128,-1,15
 168 520 168 520 162 470 c 1,16,-1
 75 470 l 1,17,18
 80 552 80 552 141 596 c 128,-1,19
 202 640 202 640 297.296 640 c 128,-1,20
 392.592 640 392.592 640 452.796 588.246 c 128,-1,21
 513 536.491 513 536.491 513 459.746 c 128,-1,22
 513 383 513 383 473.5 338 c 128,-1,23
 434 293 434 293 365 266 c 2,24,-1
 238 215 l 2,25,26
 190 195 190 195 166.5 169.5 c 128,-1,27
 143 144 143 144 143 103 c 2,28,-1
 143 73 l 1,0,-1
EndSplineSet
Substitution2: "'onum' Oldstyle Figures in Latin lookup 0 subtable" .notdef
EndChar

StartChar: three
Encoding: 51 51 76
Width: 591
Flags: W
LayerCount: 2
Fore
SplineSet
505 468 m 0,0,1
 505 367.704 505 367.704 395 329 c 1,2,3
 455 312 455 312 492 273 c 128,-1,4
 529 234 529 234 529 173 c 0,5,6
 529 89.6 529 89.6 466.125 39.3 c 128,-1,7
 403.25 -11 403.25 -11 300.213 -11 c 128,-1,8
 197.176 -11 197.176 -11 124.588 42.6522 c 128,-1,9
 52 96.3043 52 96.3043 52 193 c 1,10,-1
 134 193 l 1,11,12
 136 129 136 129 181.333 95 c 128,-1,13
 226.667 61 226.667 61 296.833 61 c 128,-1,14
 367 61 367 61 405.5 94.5 c 128,-1,15
 444 128 444 128 444 177.5 c 128,-1,16
 444 227 444 227 407 258.5 c 128,-1,17
 370 290 370 290 287 290 c 2,18,-1
 215 290 l 1,19,-1
 215 353 l 1,20,-1
 264 353 l 2,21,22
 336 353 336 353 378 381.5 c 128,-1,23
 420 410 420 410 420 458 c 128,-1,24
 420 506 420 506 386 537 c 128,-1,25
 352 568 352 568 296 568 c 128,-1,26
 240 568 240 568 202.5 548.5 c 128,-1,27
 165 529 165 529 152 476 c 1,28,-1
 70 476 l 1,29,30
 81.328 559.072 81.328 559.072 138.989 599.536 c 128,-1,31
 196.65 640 196.65 640 288.569 640 c 128,-1,32
 380.489 640 380.489 640 442.744 591.698 c 128,-1,33
 505 543.397 505 543.397 505 468 c 0,0,1
EndSplineSet
Substitution2: "'onum' Oldstyle Figures in Latin lookup 0 subtable" .notdef
EndChar

StartChar: four
Encoding: 52 52 77
Width: 559
Flags: W
LayerCount: 2
Fore
SplineSet
120 213 m 1,0,-1
 353 213 l 1,1,-1
 353 513 l 1,2,-1
 120 213 l 1,0,-1
428 638 m 1,3,-1
 428 220 l 1,4,-1
 537 220 l 1,5,-1
 537 152 l 1,6,-1
 428 152 l 1,7,-1
 428 0 l 1,8,-1
 351 0 l 1,9,-1
 351 152 l 1,10,-1
 26 152 l 1,11,-1
 26 213 l 1,12,-1
 355 638 l 1,13,-1
 428 638 l 1,3,-1
EndSplineSet
Substitution2: "'onum' Oldstyle Figures in Latin lookup 0 subtable" .notdef
EndChar

StartChar: five
Encoding: 53 53 78
Width: 565
Flags: W
LayerCount: 2
Fore
SplineSet
427 204 m 0,0,1
 427 323 427 323 272 323 c 2,2,-1
 103 323 l 1,3,-1
 130 629 l 1,4,-1
 479 629 l 1,5,-1
 479 557 l 1,6,-1
 206 557 l 1,7,-1
 189 376 l 1,8,9
 240.75 385 240.75 385 288 385 c 0,10,11
 391 385 391 385 450 339.5 c 128,-1,12
 509 294 509 294 509 202.224 c 128,-1,13
 509 110.448 509 110.448 447.211 49.7241 c 128,-1,14
 385.421 -11 385.421 -11 287.274 -11 c 128,-1,15
 189.128 -11 189.128 -11 127.064 38.4407 c 128,-1,16
 65 87.8814 65 87.8814 65 175 c 1,17,-1
 144 175 l 1,18,19
 144 93.3529 144 93.3529 228.5 68.5 c 0,20,21
 254 61 254 61 285 61 c 0,22,23
 348.579 61 348.579 61 387.789 101.27 c 128,-1,24
 427 141.541 427 141.541 427 204 c 0,0,1
EndSplineSet
Substitution2: "'onum' Oldstyle Figures in Latin lookup 0 subtable" .notdef
EndChar

StartChar: six
Encoding: 54 54 79
Width: 573
Flags: W
LayerCount: 2
Fore
SplineSet
207.5 273.5 m 128,-1,1
 170 238.143 170 238.143 170 183.214 c 128,-1,2
 170 128.286 170 128.286 206.797 94.6429 c 128,-1,3
 243.594 61 243.594 61 300.797 61 c 128,-1,4
 358 61 358 61 395.5 94 c 128,-1,5
 433 127 433 127 433 185 c 128,-1,6
 433 243 433 243 395.5 276 c 128,-1,7
 358 309 358 309 301.576 309 c 128,-1,0
 245.152 309 245.152 309 207.5 273.5 c 128,-1,1
425 470 m 1,8,9
 407.578 568 407.578 568 317.692 568 c 128,-1,10
 227.806 568 227.806 568 179.403 493.851 c 128,-1,11
 131 419.702 131 419.702 131 292 c 0,12,13
 131 239 131 239 136 204 c 1,14,15
 141.646 296.221 141.646 296.221 192.348 337.611 c 128,-1,16
 243.05 379 243.05 379 322.251 379 c 128,-1,17
 401.453 379 401.453 379 458.226 323.278 c 128,-1,18
 515 267.556 515 267.556 515 181.394 c 128,-1,19
 515 95.2321 515 95.2321 456.127 41.6161 c 128,-1,20
 397.255 -12 397.255 -12 301 -12 c 0,21,22
 188.706 -12 188.706 -12 119.853 78.0385 c 128,-1,23
 51 168.077 51 168.077 51 314.509 c 128,-1,24
 51 460.941 51 460.941 121 550.5 c 128,-1,25
 190.954 640 190.954 640 312 640 c 0,26,27
 395.667 640 395.667 640 448.823 593.097 c 128,-1,28
 501.98 546.195 501.98 546.195 510 470 c 1,29,-1
 425 470 l 1,8,9
EndSplineSet
Substitution2: "'onum' Oldstyle Figures in Latin lookup 0 subtable" .notdef
EndChar

StartChar: seven
Encoding: 55 55 80
Width: 470
Flags: W
LayerCount: 2
Fore
SplineSet
452 629 m 1,0,-1
 452 556 l 1,1,-1
 164 0 l 1,2,-1
 58 0 l 1,3,-1
 360 553 l 1,4,-1
 24 553 l 1,5,-1
 24 629 l 1,6,-1
 452 629 l 1,0,-1
EndSplineSet
Substitution2: "'onum' Oldstyle Figures in Latin lookup 0 subtable" .notdef
EndChar

StartChar: eight
Encoding: 56 56 81
Width: 615
Flags: W
LayerCount: 2
Fore
SplineSet
159 463 m 0,0,1
 159 436 159 436 181 416.5 c 128,-1,2
 203 397 203 397 244 381 c 2,3,-1
 317 353 l 1,4,5
 377.283 355.079 377.283 355.079 416.141 384.485 c 128,-1,6
 455 413.892 455 413.892 455 461.446 c 128,-1,7
 455 509 455 509 414 538.5 c 128,-1,8
 373 568 373 568 308.111 568 c 128,-1,9
 243.222 568 243.222 568 201.111 539.575 c 128,-1,10
 159 511.15 159 511.15 159 463 c 0,0,1
276 289 m 1,11,12
 213 282 213 282 175 249.5 c 128,-1,13
 137 217 137 217 137 169.196 c 128,-1,14
 137 121.391 137 121.391 184.897 91.1957 c 128,-1,15
 232.793 61 232.793 61 310.397 61 c 128,-1,16
 388 61 388 61 433.5 87 c 128,-1,17
 479 113 479 113 479 150 c 128,-1,18
 479 187 479 187 455 209.5 c 128,-1,19
 431 232 431 232 389 247 c 2,20,-1
 276 289 l 1,11,12
201 318 m 1,21,22
 76 374.818 76 374.818 76 473 c 0,23,24
 76 547.881 76 547.881 137.761 593.941 c 128,-1,25
 199.523 640 199.523 640 302.066 640 c 128,-1,26
 404.609 640 404.609 640 470.804 590.887 c 128,-1,27
 537 541.774 537 541.774 537 465 c 0,28,29
 537 413 537 413 502.5 372 c 128,-1,30
 468 331 468 331 401 321 c 1,31,-1
 418 315 l 1,32,33
 487 289 487 289 524 253.5 c 128,-1,34
 561 218 561 218 561 157 c 0,35,36
 561 81.1818 561 81.1818 493.4 35.0909 c 128,-1,37
 425.8 -11 425.8 -11 311.244 -11 c 128,-1,38
 196.688 -11 196.688 -11 125.844 39.7537 c 128,-1,39
 55 90.5075 55 90.5075 55 168 c 0,40,41
 55 230 55 230 95.5 269 c 128,-1,42
 136 308 136 308 201 318 c 1,21,22
EndSplineSet
Substitution2: "'onum' Oldstyle Figures in Latin lookup 0 subtable" .notdef
EndChar

StartChar: nine
Encoding: 57 57 82
Width: 581
Flags: W
LayerCount: 2
Fore
SplineSet
279 567 m 128,-1,1
 222 567 222 567 185 534 c 128,-1,2
 148 501 148 501 148 443 c 128,-1,3
 148 385 148 385 185.5 352 c 128,-1,4
 223 319 223 319 279.424 319 c 128,-1,5
 335.848 319 335.848 319 373.5 354.5 c 128,-1,6
 411 389.857 411 389.857 411 445.04 c 128,-1,7
 411 500.222 411 500.222 373.438 533.611 c 128,-1,0
 335.875 567 335.875 567 279 567 c 128,-1,1
282.5 640 m 0,8,9
 333 640 333 640 379 618 c 128,-1,10
 425 596 425 596 458.5 555 c 0,11,12
 530 467.493 530 467.493 530 326 c 0,13,14
 530 81.4839 530 81.4839 393.5 12.5 c 0,15,16
 347 -11 347 -11 292 -11 c 0,17,18
 189.189 -11 189.189 -11 129.094 44.8772 c 128,-1,19
 69 100.754 69 100.754 69 186 c 1,20,-1
 152 186 l 1,21,22
 154 129 154 129 188 95 c 128,-1,23
 222 61 222 61 274 61 c 128,-1,24
 326 61 326 61 357.5 80.5 c 0,25,26
 449 137.143 449 137.143 449 337 c 0,27,28
 449 377.667 449 377.667 444 411 c 1,29,30
 434 330 434 330 385.5 290 c 128,-1,31
 337 250 337 250 258.274 250 c 128,-1,32
 179.547 250 179.547 250 122.774 305.722 c 128,-1,33
 66 361.444 66 361.444 66 447 c 0,34,35
 66 534.321 66 534.321 125.18 587.161 c 128,-1,36
 184.36 640 184.36 640 282.5 640 c 0,8,9
EndSplineSet
Substitution2: "'onum' Oldstyle Figures in Latin lookup 0 subtable" .notdef
EndChar

StartChar: zero.propold
Encoding: 65539 -1 83
Width: 531
Flags: W
LayerCount: 2
Fore
SplineSet
400 270 m 0,0,1
 400 482 400 482 266 482 c 128,-1,2
 132 482 132 482 132 270 c 0,3,4
 132 59 132 59 266 59 c 128,-1,5
 400 59 400 59 400 270 c 0,0,1
265.5 551 m 128,-1,7
 363.901 551 363.901 551 422.451 478.07 c 128,-1,8
 481 405.14 481 405.14 481 270 c 128,-1,9
 481 134.86 481 134.86 422.451 61.9298 c 128,-1,10
 363.901 -11 363.901 -11 265.5 -11 c 128,-1,11
 167.099 -11 167.099 -11 109.049 61.307 c 128,-1,12
 51 133.614 51 133.614 51 270 c 128,-1,13
 51 406.386 51 406.386 109.049 478.693 c 128,-1,6
 167.099 551 167.099 551 265.5 551 c 128,-1,7
EndSplineSet
EndChar

StartChar: one.propold
Encoding: 65540 -1 84
Width: 331
Flags: W
LayerCount: 2
Fore
SplineSet
49 489 m 1,0,1
 118.026 500.133 118.026 500.133 166 541 c 1,2,-1
 230 541 l 1,3,-1
 230 0 l 1,4,-1
 152 0 l 1,5,-1
 152 446 l 1,6,7
 101 414 101 414 49 412 c 1,8,-1
 49 489 l 1,0,1
EndSplineSet
EndChar

StartChar: two.propold
Encoding: 65541 -1 85
Width: 575
Flags: W
LayerCount: 2
Fore
SplineSet
143 73 m 1,0,-1
 500 73 l 1,1,-1
 500 0 l 1,2,-1
 64 0 l 1,3,-1
 64 84 l 2,4,5
 64 164 64 164 101 205.5 c 128,-1,6
 138 247 138 247 214 264 c 1,7,-1
 317 289 l 2,8,9
 370 301 370 301 395.5 325 c 128,-1,10
 421 349 421 349 421 388 c 128,-1,11
 421 427 421 427 389 454 c 128,-1,12
 357 481 357 481 299 481 c 128,-1,13
 241 481 241 481 204.5 458 c 128,-1,14
 168 435 168 435 162 388 c 1,15,-1
 75 388 l 1,16,17
 80 466 80 466 138 508.5 c 128,-1,18
 196 551 196 551 290.3 551 c 128,-1,19
 384.6 551 384.6 551 442.8 502.5 c 128,-1,20
 501 454 501 454 501 388 c 128,-1,21
 501 322 501 322 464 285.5 c 128,-1,22
 427 249 427 249 351 231 c 2,23,-1
 240 204 l 1,24,25
 143 182.038 143 182.038 143 105 c 2,26,-1
 143 73 l 1,0,-1
EndSplineSet
EndChar

StartChar: three.propold
Encoding: 65542 -1 86
Width: 562
Flags: W
LayerCount: 2
Fore
SplineSet
260 483 m 0,0,1
 149.878 483 149.878 483 129 390 c 1,2,-1
 46 390 l 1,3,4
 67.9545 551 67.9545 551 259 551 c 0,5,6
 351.75 551 351.75 551 409.875 504.5 c 128,-1,7
 468 458 468 458 468 384 c 0,8,9
 468 333 468 333 439.5 302 c 128,-1,10
 411 271 411 271 360 252 c 1,11,12
 421 232 421 232 457 184.5 c 128,-1,13
 493 137 493 137 493 74 c 0,14,15
 493 -8.13115 493 -8.13115 428.5 -61 c 128,-1,16
 363.84 -114 363.84 -114 261.67 -114 c 128,-1,17
 159.5 -114 159.5 -114 93.75 -61.8175 c 128,-1,18
 28 -9.63492 28 -9.63492 28 88 c 1,19,-1
 108 88 l 1,20,21
 110 19 110 19 151.5 -13.5 c 128,-1,22
 193 -46 193 -46 258.697 -46 c 128,-1,23
 324.394 -46 324.394 -46 368.197 -10.7439 c 128,-1,24
 412 24.5122 412 24.5122 412 79 c 0,25,26
 412 167.367 412 167.367 323 200 c 0,27,28
 293 211 293 211 251 211 c 2,29,-1
 190 211 l 1,30,-1
 190 274 l 1,31,-1
 233 274 l 2,32,33
 305 274 305 274 346.5 300 c 128,-1,34
 388 326 388 326 388 375 c 128,-1,35
 388 424 388 424 354 453.5 c 128,-1,36
 320 483 320 483 260 483 c 0,0,1
EndSplineSet
EndChar

StartChar: four.propold
Encoding: 65543 -1 87
Width: 560
Flags: W
LayerCount: 2
Fore
SplineSet
112 115 m 1,0,-1
 351 115 l 1,1,-1
 351 422 l 1,2,-1
 112 115 l 1,0,-1
427 546 m 1,3,-1
 427 121 l 1,4,-1
 536 121 l 1,5,-1
 536 54 l 1,6,-1
 427 54 l 1,7,-1
 427 -105 l 1,8,-1
 349 -105 l 1,9,-1
 349 54 l 1,10,-1
 24 54 l 1,11,-1
 24 115 l 1,12,-1
 353 546 l 1,13,-1
 427 546 l 1,3,-1
EndSplineSet
EndChar

StartChar: five.propold
Encoding: 65544 -1 88
Width: 569
Flags: W
LayerCount: 2
Fore
SplineSet
187 296 m 1,0,1
 233 306 233 306 281 306 c 0,2,3
 386 306 386 306 446 253 c 128,-1,4
 506 200 506 200 506 105.857 c 128,-1,5
 506 11.7143 506 11.7143 438.881 -51.1429 c 128,-1,6
 371.763 -114 371.763 -114 276.881 -114 c 128,-1,7
 182 -114 182 -114 123.5 -63.8571 c 128,-1,8
 65 -13.7143 65 -13.7143 65 75 c 1,9,-1
 142 75 l 1,10,11
 142 18 142 18 177 -12 c 128,-1,12
 212 -42 212 -42 274.95 -42 c 128,-1,13
 337.9 -42 337.9 -42 382 0 c 128,-1,14
 426 41.9048 426 41.9048 426 105.452 c 128,-1,15
 426 169 426 169 385.5 205 c 128,-1,16
 345 241 345 241 266 241 c 2,17,-1
 104 241 l 1,18,-1
 132 545 l 1,19,-1
 477 545 l 1,20,-1
 477 474 l 1,21,-1
 205 474 l 1,22,-1
 187 296 l 1,0,1
EndSplineSet
EndChar

StartChar: six.propold
Encoding: 65545 -1 89
Width: 573
Flags: W
LayerCount: 2
Fore
SplineSet
207.5 273.5 m 128,-1,1
 170 238.143 170 238.143 170 183.214 c 128,-1,2
 170 128.286 170 128.286 206.797 94.6429 c 128,-1,3
 243.594 61 243.594 61 300.797 61 c 128,-1,4
 358 61 358 61 395.5 94 c 128,-1,5
 433 127 433 127 433 185 c 128,-1,6
 433 243 433 243 395.5 276 c 128,-1,7
 358 309 358 309 301.576 309 c 128,-1,0
 245.152 309 245.152 309 207.5 273.5 c 128,-1,1
425 470 m 1,8,9
 407.578 568 407.578 568 317.692 568 c 128,-1,10
 227.806 568 227.806 568 179.403 493.851 c 128,-1,11
 131 419.702 131 419.702 131 292 c 0,12,13
 131 239 131 239 136 204 c 1,14,15
 141.646 296.221 141.646 296.221 192.348 337.611 c 128,-1,16
 243.05 379 243.05 379 322.251 379 c 128,-1,17
 401.453 379 401.453 379 458.226 323.278 c 128,-1,18
 515 267.556 515 267.556 515 181.394 c 128,-1,19
 515 95.2321 515 95.2321 456.127 41.6161 c 128,-1,20
 397.255 -12 397.255 -12 301 -12 c 0,21,22
 188.706 -12 188.706 -12 119.853 78.0385 c 128,-1,23
 51 168.077 51 168.077 51 314.509 c 128,-1,24
 51 460.941 51 460.941 121 550.5 c 128,-1,25
 190.954 640 190.954 640 312 640 c 0,26,27
 395.667 640 395.667 640 448.823 593.097 c 128,-1,28
 501.98 546.195 501.98 546.195 510 470 c 1,29,-1
 425 470 l 1,8,9
EndSplineSet
EndChar

StartChar: seven.propold
Encoding: 65546 -1 90
Width: 470
Flags: W
LayerCount: 2
Fore
SplineSet
452 551 m 1,0,-1
 452 484 l 1,1,-1
 152 -98 l 1,2,-1
 55 -98 l 1,3,-1
 369 481 l 1,4,-1
 24 481 l 1,5,-1
 24 551 l 1,6,-1
 452 551 l 1,0,-1
EndSplineSet
EndChar

StartChar: eight.propold
Encoding: 65547 -1 91
Width: 615
Flags: W
LayerCount: 2
Fore
SplineSet
159 463 m 0,0,1
 159 436 159 436 181 416.5 c 128,-1,2
 203 397 203 397 244 381 c 2,3,-1
 317 353 l 1,4,5
 377.283 355.079 377.283 355.079 416.141 384.485 c 128,-1,6
 455 413.892 455 413.892 455 461.446 c 128,-1,7
 455 509 455 509 414 538.5 c 128,-1,8
 373 568 373 568 308.111 568 c 128,-1,9
 243.222 568 243.222 568 201.111 539.575 c 128,-1,10
 159 511.15 159 511.15 159 463 c 0,0,1
276 289 m 1,11,12
 213 282 213 282 175 249.5 c 128,-1,13
 137 217 137 217 137 169.196 c 128,-1,14
 137 121.391 137 121.391 184.897 91.1957 c 128,-1,15
 232.793 61 232.793 61 310.397 61 c 128,-1,16
 388 61 388 61 433.5 87 c 128,-1,17
 479 113 479 113 479 150 c 128,-1,18
 479 187 479 187 455 209.5 c 128,-1,19
 431 232 431 232 389 247 c 2,20,-1
 276 289 l 1,11,12
201 318 m 1,21,22
 76 374.818 76 374.818 76 473 c 0,23,24
 76 547.881 76 547.881 137.761 593.941 c 128,-1,25
 199.523 640 199.523 640 302.066 640 c 128,-1,26
 404.609 640 404.609 640 470.804 590.887 c 128,-1,27
 537 541.774 537 541.774 537 465 c 0,28,29
 537 413 537 413 502.5 372 c 128,-1,30
 468 331 468 331 401 321 c 1,31,-1
 418 315 l 1,32,33
 487 289 487 289 524 253.5 c 128,-1,34
 561 218 561 218 561 157 c 0,35,36
 561 81.1818 561 81.1818 493.4 35.0909 c 128,-1,37
 425.8 -11 425.8 -11 311.244 -11 c 128,-1,38
 196.688 -11 196.688 -11 125.844 39.7537 c 128,-1,39
 55 90.5075 55 90.5075 55 168 c 0,40,41
 55 230 55 230 95.5 269 c 128,-1,42
 136 308 136 308 201 318 c 1,21,22
EndSplineSet
EndChar

StartChar: nine.propold
Encoding: 65548 -1 92
Width: 580
Flags: W
LayerCount: 2
Fore
SplineSet
279 481 m 128,-1,1
 219 481 219 481 183.5 446.5 c 128,-1,2
 148 412 148 412 148 353.5 c 128,-1,3
 148 295 148 295 184 260.5 c 128,-1,4
 220 226 220 226 278.5 226 c 128,-1,5
 337 226 337 226 374 263 c 128,-1,6
 411 300 411 300 411 356 c 128,-1,7
 411 412 411 412 375 446.5 c 128,-1,0
 339 481 339 481 279 481 c 128,-1,1
285.5 551 m 0,8,9
 339 551 339 551 385.5 525.5 c 128,-1,10
 432 500 432 500 464 456.5 c 0,11,12
 530 366.781 530 366.781 530 216.938 c 128,-1,13
 530 67.0952 530 67.0952 465.176 -23.4524 c 128,-1,14
 400.352 -114 400.352 -114 281 -114 c 0,15,16
 187.642 -114 187.642 -114 128.821 -58.3304 c 128,-1,17
 70 -2.66071 70 -2.66071 70 83 c 1,18,-1
 153 83 l 1,19,20
 155 26 155 26 187.5 -8 c 128,-1,21
 220 -42 220 -42 272.5 -42 c 128,-1,22
 325 -42 325 -42 356.5 -22.5 c 0,23,24
 449 34.7619 449 34.7619 449 238 c 0,25,26
 449 283 449 283 444 318 c 1,27,28
 436 241 436 241 389 198.5 c 128,-1,29
 342 156 342 156 263.365 156 c 128,-1,30
 184.731 156 184.731 156 125.365 212.127 c 128,-1,31
 66 268.255 66 268.255 66 354 c 0,32,33
 66 441.214 66 441.214 125.115 496.107 c 128,-1,34
 184.231 551 184.231 551 285.5 551 c 0,8,9
EndSplineSet
EndChar

StartChar: dollar
Encoding: 36 36 93
Width: 632
Flags: W
LayerCount: 2
Fore
SplineSet
199 536 m 128,-1,1
 170 509 170 509 170 472.5 c 128,-1,2
 170 436 170 436 190 415.5 c 128,-1,3
 210 395 210 395 255 381 c 1,4,-1
 285 370 l 1,5,-1
 285 569 l 1,6,0
 228 563 228 563 199 536 c 128,-1,1
475 167 m 0,7,8
 475 240.727 475 240.727 383 270 c 1,9,-1
 347 282 l 1,10,-1
 347 62 l 1,11,12
 410 67 410 67 442.5 98 c 128,-1,13
 475 129 475 129 475 167 c 0,7,8
417 330 m 2,14,15
 486 307 486 307 524.5 268.5 c 128,-1,16
 563 230 563 230 563 163.5 c 128,-1,17
 563 97 563 97 506 46.3333 c 128,-1,18
 449 -4.33333 449 -4.33333 347 -10 c 1,19,-1
 347 -91 l 1,20,-1
 285 -91 l 1,21,-1
 285 -9 l 1,22,23
 190.073 -0.562088 190.073 -0.562088 129.537 50.581 c 128,-1,24
 69 101.724 69 101.724 69 189 c 1,25,-1
 146 189 l 1,26,27
 146 76.2381 146 76.2381 285 63 c 1,28,-1
 285 298 l 1,29,-1
 253 310 l 1,30,31
 170 336 170 336 127.5 372 c 128,-1,32
 85 408 85 408 85 475 c 128,-1,33
 85 542 85 542 135.5 586.5 c 128,-1,34
 186 631 186 631 285 638 c 1,35,-1
 285 713 l 1,36,-1
 347 713 l 1,37,-1
 347 637 l 1,38,39
 434 630 434 630 481 587 c 128,-1,40
 528 544 528 544 539 476 c 1,41,-1
 461 476 l 1,42,43
 444.084 556.35 444.084 556.35 347 568 c 1,44,-1
 347 353 l 1,45,-1
 417 330 l 2,14,15
EndSplineSet
EndChar

StartChar: question
Encoding: 63 63 94
Width: 499
Flags: W
LayerCount: 2
Fore
SplineSet
217 102 m 128,-1,1
 243 102 243 102 260 85 c 128,-1,2
 277 68 277 68 277 44.5 c 128,-1,3
 277 21 277 21 260 5 c 128,-1,4
 243 -11 243 -11 217 -11 c 128,-1,5
 191 -11 191 -11 175 5 c 128,-1,6
 159 21 159 21 159 44.5 c 128,-1,7
 159 68 159 68 175 85 c 128,-1,0
 191 102 191 102 217 102 c 128,-1,1
248 568 m 0,8,9
 130.727 568 130.727 568 114 476 c 1,10,-1
 30 476 l 1,11,12
 37 550 37 550 91 595 c 128,-1,13
 145 640 145 640 242.689 640 c 128,-1,14
 340.378 640 340.378 640 396.689 592.189 c 128,-1,15
 453 544.377 453 544.377 453 475 c 0,16,17
 453 423 453 423 427 388.5 c 128,-1,18
 401 354 401 354 343 322 c 0,19,20
 318 308 318 308 301 297 c 128,-1,21
 284 286 284 286 274 272.5 c 0,22,23
 255 246.85 255 246.85 255 200 c 2,24,-1
 255 161 l 1,25,-1
 177 161 l 1,26,-1
 177 206 l 2,27,28
 177 269.348 177 269.348 198.183 302.504 c 128,-1,29
 219.367 335.661 219.367 335.661 274.194 365.676 c 128,-1,30
 329.021 395.692 329.021 395.692 348.011 418.298 c 128,-1,31
 367 440.905 367 440.905 367 478.952 c 128,-1,32
 367 517 367 517 335.5 542.5 c 128,-1,33
 304 568 304 568 248 568 c 0,8,9
EndSplineSet
EndChar

StartChar: sterling
Encoding: 163 163 95
Width: 565
Flags: W
LayerCount: 2
Fore
SplineSet
400 490 m 1,0,1
 384 568 384 568 298 568 c 0,2,3
 256 568 256 568 227.5 536 c 128,-1,4
 199 504 199 504 199 432 c 2,5,-1
 199 323 l 1,6,-1
 381 323 l 1,7,-1
 381 267 l 1,8,-1
 199 267 l 1,9,-1
 199 163 l 2,10,11
 199 94.9 199 94.9 162 69 c 1,12,-1
 345 69 l 2,13,14
 394 69 394 69 416.5 89.5 c 128,-1,15
 439 110 439 110 445 154 c 1,16,-1
 529 154 l 1,17,18
 522.616 77.3866 522.616 77.3866 481.02 38.6933 c 128,-1,19
 439.425 1.06581e-14 439.425 1.06581e-14 345 0 c 2,20,-1
 20 0 l 1,21,-1
 20 69 l 1,22,-1
 48 69 l 2,23,24
 86 69 86 69 103.5 91 c 128,-1,25
 121 113 121 113 121 159 c 2,26,-1
 121 267 l 1,27,-1
 30 267 l 1,28,-1
 30 323 l 1,29,-1
 121 323 l 1,30,-1
 121 432 l 2,31,32
 121 531 121 531 167.5 585.5 c 128,-1,33
 214 640 214 640 305 640 c 0,34,35
 376 640 376 640 421 602 c 128,-1,36
 466 564 466 564 477 490 c 1,37,-1
 400 490 l 1,0,1
EndSplineSet
EndChar

StartChar: grave
Encoding: 96 96 96
Width: 315
Flags: W
LayerCount: 2
Fore
SplineSet
57 860 m 1,0,-1
 292 727 l 1,1,-1
 269 677 l 1,2,-1
 24 790 l 1,3,-1
 57 860 l 1,0,-1
EndSplineSet
EndChar

StartChar: acute
Encoding: 180 180 97
Width: 315
Flags: W
LayerCount: 2
Fore
SplineSet
290 790 m 1,0,-1
 46 677 l 1,1,-1
 23 727 l 1,2,-1
 258 860 l 1,3,-1
 290 790 l 1,0,-1
EndSplineSet
EndChar

StartChar: agrave
Encoding: 224 224 98
Width: 551
Flags: W
LayerCount: 2
Fore
SplineSet
182 731 m 1,0,-1
 417 598 l 1,1,-1
 394 548 l 1,2,-1
 149 661 l 1,3,-1
 182 731 l 1,0,-1
387 199 m 1,4,5
 315.889 219 315.889 219 262.944 219 c 128,-1,6
 210 219 210 219 177 200 c 128,-1,7
 144 181 144 181 144 140 c 0,8,9
 144 50 144 50 246 50 c 0,10,11
 304 50 304 50 345.5 91.5 c 128,-1,12
 387 133 387 133 387 199 c 1,4,5
387 310 m 2,13,14
 387 375 387 375 360 403 c 128,-1,15
 333 431 333 431 281.5 431 c 128,-1,16
 230 431 230 431 198.5 410.5 c 128,-1,17
 167 390 167 390 167 346 c 1,18,-1
 80 346 l 1,19,20
 80 455.778 80 455.778 198 482 c 0,21,22
 234 490 234 490 276.5 490 c 0,23,24
 364.614 490 364.614 490 414.807 444.929 c 128,-1,25
 465 399.857 465 399.857 465 308 c 2,26,-1
 465 0 l 1,27,-1
 397 0 l 1,28,-1
 389 80 l 1,29,30
 345 -11 345 -11 230 -11 c 0,31,32
 152.756 -11 152.756 -11 106.378 32.2159 c 128,-1,33
 60 75.4318 60 75.4318 60 139.066 c 128,-1,34
 60 202.7 60 202.7 111.643 238.85 c 128,-1,35
 163.286 275 163.286 275 240.143 275 c 128,-1,36
 317 275 317 275 387 249 c 1,37,-1
 387 310 l 2,13,14
EndSplineSet
EndChar

StartChar: egrave
Encoding: 232 232 99
Width: 514
Flags: W
LayerCount: 2
Fore
SplineSet
159 736 m 1,0,-1
 394 603 l 1,1,-1
 371 553 l 1,2,-1
 126 666 l 1,3,-1
 159 736 l 1,0,-1
324.5 415 m 0,4,5
 302 427 302 427 269.5 427 c 0,6,7
 207.55 427 207.55 427 172.388 385.633 c 128,-1,8
 137.227 344.267 137.227 344.267 131 282 c 1,9,-1
 386 282 l 1,10,11
 386 382.2 386 382.2 324.5 415 c 0,4,5
267 53 m 0,12,13
 366.159 53 366.159 53 380 140 c 1,14,-1
 461 140 l 1,15,16
 450 68 450 68 397.5 28.5 c 128,-1,17
 345 -11 345 -11 267 -11 c 0,18,19
 170.815 -11 170.815 -11 110.908 57.3158 c 128,-1,20
 51 125.632 51 125.632 51 239.885 c 128,-1,21
 51 354.138 51 354.138 111.615 422.069 c 128,-1,22
 172.231 490 172.231 490 272.642 490 c 128,-1,23
 373.054 490 373.054 490 422.453 412.223 c 128,-1,24
 471.851 334.447 471.851 334.447 457 222 c 1,25,-1
 130 222 l 1,26,27
 130 147.824 130 147.824 165.822 100.412 c 128,-1,28
 201.644 53 201.644 53 267 53 c 0,12,13
EndSplineSet
EndChar

StartChar: ograve
Encoding: 242 242 100
Width: 547
Flags: W
LayerCount: 2
Fore
SplineSet
174 731 m 1,0,-1
 409 598 l 1,1,-1
 386 548 l 1,2,-1
 141 661 l 1,3,-1
 174 731 l 1,0,-1
381 373.5 m 128,-1,5
 345 422 345 422 275.5 422 c 128,-1,6
 206 422 206 422 169 373.5 c 128,-1,7
 132 325 132 325 132 239.5 c 128,-1,8
 132 154 132 154 167 105.5 c 128,-1,9
 202 57 202 57 271.5 57 c 128,-1,10
 341 57 341 57 379 105.5 c 128,-1,11
 417 154 417 154 417 239.5 c 128,-1,4
 417 325 417 325 381 373.5 c 128,-1,5
274 490 m 128,-1,13
 373.524 490 373.524 490 435.262 425.175 c 128,-1,14
 497 360.35 497 360.35 497 239 c 0,15,16
 497 118.65 497 118.65 435.262 53.825 c 128,-1,17
 373.524 -11 373.524 -11 274 -11 c 128,-1,18
 174.476 -11 174.476 -11 112.738 53.825 c 128,-1,19
 51 118.65 51 118.65 51 239 c 0,20,21
 51 360.35 51 360.35 112.738 425.175 c 128,-1,12
 174.476 490 174.476 490 274 490 c 128,-1,13
EndSplineSet
EndChar

StartChar: Agrave
Encoding: 192 192 101
Width: 575
Flags: W
LayerCount: 2
Fore
SplineSet
190 860 m 1,0,-1
 425 727 l 1,1,-1
 402 677 l 1,2,-1
 157 790 l 1,3,-1
 190 860 l 1,0,-1
184 222 m 1,4,-1
 393 222 l 1,5,-1
 289 532 l 1,6,-1
 184 222 l 1,4,-1
242 629 m 1,7,-1
 338 629 l 1,8,-1
 549 0 l 1,9,-1
 467 0 l 1,10,-1
 413 160 l 1,11,-1
 163 160 l 1,12,-1
 109 0 l 1,13,-1
 26 0 l 1,14,-1
 242 629 l 1,7,-1
EndSplineSet
EndChar

StartChar: Egrave
Encoding: 200 200 102
Width: 564
Flags: W
LayerCount: 2
Fore
SplineSet
194 860 m 1,0,-1
 429 727 l 1,1,-1
 406 677 l 1,2,-1
 161 790 l 1,3,-1
 194 860 l 1,0,-1
100 629 m 1,4,-1
 487 629 l 1,5,-1
 487 561 l 1,6,-1
 179 561 l 1,7,-1
 179 350 l 1,8,-1
 469 350 l 1,9,-1
 469 283 l 1,10,-1
 179 283 l 1,11,-1
 179 69 l 1,12,-1
 487 69 l 1,13,-1
 487 0 l 1,14,-1
 100 0 l 1,15,-1
 100 629 l 1,4,-1
EndSplineSet
EndChar

StartChar: ugrave
Encoding: 249 249 103
Width: 606
Flags: W
LayerCount: 2
Fore
SplineSet
200 769 m 1,0,-1
 435 636 l 1,1,-1
 412 586 l 1,2,-1
 167 699 l 1,3,-1
 200 769 l 1,0,-1
426 95 m 1,4,5
 377.059 -9 377.059 -9 267 -9 c 0,6,7
 186 -9 186 -9 136.5 36 c 128,-1,8
 87 81 87 81 87 175 c 2,9,-1
 87 479 l 1,10,-1
 166 479 l 1,11,-1
 166 181 l 2,12,13
 166 60 166 60 278 60 c 0,14,15
 342.875 60 342.875 60 383.5 110 c 128,-1,16
 423.996 159.841 423.996 159.841 426 238 c 1,17,-1
 426 479 l 1,18,-1
 505 479 l 1,19,-1
 505 0 l 1,20,-1
 426 0 l 1,21,-1
 426 95 l 1,4,5
EndSplineSet
EndChar

StartChar: aacute
Encoding: 225 225 104
Width: 551
Flags: W
LayerCount: 2
Fore
SplineSet
415 661 m 1,0,-1
 171 548 l 1,1,-1
 148 598 l 1,2,-1
 383 731 l 1,3,-1
 415 661 l 1,0,-1
387 199 m 1,4,5
 315.889 219 315.889 219 262.944 219 c 128,-1,6
 210 219 210 219 177 200 c 128,-1,7
 144 181 144 181 144 140 c 0,8,9
 144 50 144 50 246 50 c 0,10,11
 303.474 50 303.474 50 344.275 89.755 c 128,-1,12
 385.076 129.51 385.076 129.51 387 193 c 1,13,-1
 387 199 l 1,4,5
387 310 m 2,14,15
 387 375 387 375 360 403 c 128,-1,16
 333 431 333 431 281.5 431 c 128,-1,17
 230 431 230 431 198.5 410.5 c 128,-1,18
 167 390 167 390 167 346 c 1,19,-1
 80 346 l 1,20,21
 80 455.778 80 455.778 198 482 c 0,22,23
 234 490 234 490 276.5 490 c 0,24,25
 364.614 490 364.614 490 414.807 444.929 c 128,-1,26
 465 399.857 465 399.857 465 308 c 2,27,-1
 465 0 l 1,28,-1
 397 0 l 1,29,-1
 389 80 l 1,30,31
 345 -11 345 -11 230 -11 c 0,32,33
 152.756 -11 152.756 -11 106.378 32.2159 c 128,-1,34
 60 75.4318 60 75.4318 60 139.066 c 128,-1,35
 60 202.7 60 202.7 111.643 238.85 c 128,-1,36
 163.286 275 163.286 275 240.143 275 c 128,-1,37
 317 275 317 275 387 249 c 1,38,-1
 387 310 l 2,14,15
EndSplineSet
EndChar

StartChar: Aacute
Encoding: 193 193 108
Width: 575
Flags: W
LayerCount: 2
Fore
SplineSet
423 790 m 1,0,-1
 179 677 l 1,1,-1
 156 727 l 1,2,-1
 391 860 l 1,3,-1
 423 790 l 1,0,-1
184 222 m 1,4,-1
 393 222 l 1,5,-1
 289 532 l 1,6,-1
 184 222 l 1,4,-1
242 629 m 1,7,-1
 338 629 l 1,8,-1
 549 0 l 1,9,-1
 467 0 l 1,10,-1
 413 160 l 1,11,-1
 163 160 l 1,12,-1
 109 0 l 1,13,-1
 26 0 l 1,14,-1
 242 629 l 1,7,-1
EndSplineSet
EndChar

StartChar: Igrave
Encoding: 204 204 110
Width: 280
Flags: W
LayerCount: 2
Fore
SplineSet
40 860 m 1,0,-1
 275 727 l 1,1,-1
 252 677 l 1,2,-1
 7 790 l 1,3,-1
 40 860 l 1,0,-1
101 629 m 1,4,-1
 180 629 l 1,5,-1
 180 0 l 1,6,-1
 101 0 l 1,7,-1
 101 629 l 1,4,-1
EndSplineSet
EndChar

StartChar: Ograve
Encoding: 210 210 112
Width: 646
Flags: W
LayerCount: 2
Fore
SplineSet
223 860 m 1,0,-1
 458 727 l 1,1,-1
 435 677 l 1,2,-1
 190 790 l 1,3,-1
 223 860 l 1,0,-1
323 569 m 128,-1,5
 235 569 235 569 184 503 c 128,-1,6
 133 437 133 437 133 313 c 128,-1,7
 133 189 133 189 184 125 c 128,-1,8
 235 61 235 61 323 61 c 128,-1,9
 411 61 411 61 462.5 125 c 128,-1,10
 514 189 514 189 514 313 c 128,-1,11
 514 437 514 437 462.5 503 c 128,-1,4
 411 569 411 569 323 569 c 128,-1,5
323 640 m 0,12,13
 445.049 640 445.049 640 520.525 556.253 c 128,-1,14
 596 472.507 596 472.507 596 313.219 c 128,-1,15
 596 153.932 596 153.932 520.75 71.4658 c 128,-1,16
 445.5 -11 445.5 -11 323 -11 c 0,17,18
 199.556 -11 199.556 -11 125.278 72.5625 c 128,-1,19
 51 156.125 51 156.125 51 314 c 0,20,21
 51 472.875 51 472.875 125.278 556.438 c 128,-1,22
 199.556 640 199.556 640 323 640 c 0,12,13
EndSplineSet
EndChar

StartChar: Ugrave
Encoding: 217 217 114
Width: 654
Flags: W
LayerCount: 2
Fore
SplineSet
226 860 m 1,0,-1
 461 727 l 1,1,-1
 438 677 l 1,2,-1
 193 790 l 1,3,-1
 226 860 l 1,0,-1
166 629 m 1,4,-1
 166 227 l 2,5,6
 166 139 166 139 210 100 c 128,-1,7
 254 61 254 61 326 61 c 128,-1,8
 398 61 398 61 442 100 c 128,-1,9
 486 139 486 139 486 227 c 2,10,-1
 486 629 l 1,11,-1
 565 629 l 1,12,-1
 565 227 l 2,13,14
 565 109 565 109 500 49 c 128,-1,15
 435 -11 435 -11 325.5 -11 c 128,-1,16
 216 -11 216 -11 151.5 49 c 128,-1,17
 87 109 87 109 87 227 c 2,18,-1
 87 629 l 1,19,-1
 166 629 l 1,4,-1
EndSplineSet
EndChar

StartChar: circumflex
Encoding: 710 710 116
Width: 407
Flags: W
LayerCount: 2
Fore
SplineSet
383 716 m 1,0,-1
 333 677 l 1,1,-1
 204 785 l 1,2,-1
 74 677 l 1,3,-1
 24 716 l 1,4,-1
 204 872 l 1,5,-1
 383 716 l 1,0,-1
EndSplineSet
EndChar

StartChar: acircumflex
Encoding: 226 226 117
Width: 551
Flags: W
LayerCount: 2
Fore
SplineSet
461 587 m 1,0,-1
 411 548 l 1,1,-1
 282 656 l 1,2,-1
 152 548 l 1,3,-1
 102 587 l 1,4,-1
 282 743 l 1,5,-1
 461 587 l 1,0,-1
387 199 m 1,6,7
 315.889 219 315.889 219 262.944 219 c 128,-1,8
 210 219 210 219 177 200 c 128,-1,9
 144 181 144 181 144 140 c 0,10,11
 144 50 144 50 246 50 c 0,12,13
 304 50 304 50 345.5 91.5 c 128,-1,14
 387 133 387 133 387 199 c 1,6,7
387 310 m 2,15,16
 387 375 387 375 360 403 c 128,-1,17
 333 431 333 431 281.5 431 c 128,-1,18
 230 431 230 431 198.5 410.5 c 128,-1,19
 167 390 167 390 167 346 c 1,20,-1
 80 346 l 1,21,22
 80 455.778 80 455.778 198 482 c 0,23,24
 234 490 234 490 276.5 490 c 0,25,26
 364.614 490 364.614 490 414.807 444.929 c 128,-1,27
 465 399.857 465 399.857 465 308 c 2,28,-1
 465 0 l 1,29,-1
 397 0 l 1,30,-1
 389 80 l 1,31,32
 345 -11 345 -11 230 -11 c 0,33,34
 152.756 -11 152.756 -11 106.378 32.2159 c 128,-1,35
 60 75.4318 60 75.4318 60 139.066 c 128,-1,36
 60 202.7 60 202.7 111.643 238.85 c 128,-1,37
 163.286 275 163.286 275 240.143 275 c 128,-1,38
 317 275 317 275 387 249 c 1,39,-1
 387 310 l 2,15,16
EndSplineSet
EndChar

StartChar: ecircumflex
Encoding: 234 234 118
Width: 514
Flags: W
LayerCount: 2
Fore
SplineSet
442 592 m 1,0,-1
 392 553 l 1,1,-1
 263 661 l 1,2,-1
 133 553 l 1,3,-1
 83 592 l 1,4,-1
 263 748 l 1,5,-1
 442 592 l 1,0,-1
327.5 415 m 0,6,7
 305 427 305 427 272.5 427 c 0,8,9
 210.55 427 210.55 427 175.388 385.633 c 128,-1,10
 140.227 344.267 140.227 344.267 134 282 c 1,11,-1
 389 282 l 1,12,13
 389 382.2 389 382.2 327.5 415 c 0,6,7
270 53 m 0,14,15
 369.159 53 369.159 53 383 140 c 1,16,-1
 464 140 l 1,17,18
 453 68 453 68 400.5 28.5 c 128,-1,19
 348 -11 348 -11 270 -11 c 0,20,21
 173.815 -11 173.815 -11 113.908 57.3158 c 128,-1,22
 54 125.632 54 125.632 54 239.885 c 128,-1,23
 54 354.138 54 354.138 114.615 422.069 c 128,-1,24
 175.231 490 175.231 490 275.642 490 c 128,-1,25
 376.054 490 376.054 490 425.453 412.223 c 128,-1,26
 474.851 334.447 474.851 334.447 460 222 c 1,27,-1
 133 222 l 1,28,29
 133 147.824 133 147.824 168.822 100.412 c 128,-1,30
 204.644 53 204.644 53 270 53 c 0,14,15
EndSplineSet
EndChar

StartChar: ocircumflex
Encoding: 244 244 119
Width: 547
Flags: W
LayerCount: 2
Fore
SplineSet
453 587 m 1,0,-1
 403 548 l 1,1,-1
 274 656 l 1,2,-1
 144 548 l 1,3,-1
 94 587 l 1,4,-1
 274 743 l 1,5,-1
 453 587 l 1,0,-1
381 373.5 m 128,-1,7
 345 422 345 422 275.5 422 c 128,-1,8
 206 422 206 422 169 373.5 c 128,-1,9
 132 325 132 325 132 239.5 c 128,-1,10
 132 154 132 154 167 105.5 c 128,-1,11
 202 57 202 57 271.5 57 c 128,-1,12
 341 57 341 57 379 105.5 c 128,-1,13
 417 154 417 154 417 239.5 c 128,-1,6
 417 325 417 325 381 373.5 c 128,-1,7
274 490 m 128,-1,15
 373.524 490 373.524 490 435.262 425.175 c 128,-1,16
 497 360.35 497 360.35 497 239 c 0,17,18
 497 118.65 497 118.65 435.262 53.825 c 128,-1,19
 373.524 -11 373.524 -11 274 -11 c 128,-1,20
 174.476 -11 174.476 -11 112.738 53.825 c 128,-1,21
 51 118.65 51 118.65 51 239 c 0,22,23
 51 360.35 51 360.35 112.738 425.175 c 128,-1,14
 174.476 490 174.476 490 274 490 c 128,-1,15
EndSplineSet
EndChar

StartChar: ucircumflex
Encoding: 251 251 120
Width: 606
Flags: W
LayerCount: 2
Fore
SplineSet
480 625 m 1,0,-1
 430 586 l 1,1,-1
 301 694 l 1,2,-1
 171 586 l 1,3,-1
 121 625 l 1,4,-1
 301 781 l 1,5,-1
 480 625 l 1,0,-1
426 95 m 1,6,7
 377.059 -9 377.059 -9 267 -9 c 0,8,9
 186 -9 186 -9 136.5 36 c 128,-1,10
 87 81 87 81 87 175 c 2,11,-1
 87 479 l 1,12,-1
 166 479 l 1,13,-1
 166 181 l 2,14,15
 166 60 166 60 278 60 c 0,16,17
 342.875 60 342.875 60 383.5 110 c 128,-1,18
 423.996 159.841 423.996 159.841 426 238 c 1,19,-1
 426 479 l 1,20,-1
 505 479 l 1,21,-1
 505 0 l 1,22,-1
 426 0 l 1,23,-1
 426 95 l 1,6,7
EndSplineSet
EndChar

StartChar: Acircumflex
Encoding: 194 194 121
Width: 575
Flags: W
LayerCount: 2
Fore
SplineSet
469 716 m 1,0,-1
 419 677 l 1,1,-1
 290 785 l 1,2,-1
 160 677 l 1,3,-1
 110 716 l 1,4,-1
 290 872 l 1,5,-1
 469 716 l 1,0,-1
184 222 m 1,6,-1
 393 222 l 1,7,-1
 289 532 l 1,8,-1
 184 222 l 1,6,-1
242 629 m 1,9,-1
 338 629 l 1,10,-1
 549 0 l 1,11,-1
 467 0 l 1,12,-1
 413 160 l 1,13,-1
 163 160 l 1,14,-1
 109 0 l 1,15,-1
 26 0 l 1,16,-1
 242 629 l 1,9,-1
EndSplineSet
EndChar

StartChar: Ecircumflex
Encoding: 202 202 122
Width: 564
Flags: W
LayerCount: 2
Fore
SplineSet
479 716 m 1,0,-1
 429 677 l 1,1,-1
 300 785 l 1,2,-1
 170 677 l 1,3,-1
 120 716 l 1,4,-1
 300 872 l 1,5,-1
 479 716 l 1,0,-1
105 629 m 1,6,-1
 492 629 l 1,7,-1
 492 561 l 1,8,-1
 184 561 l 1,9,-1
 184 350 l 1,10,-1
 474 350 l 1,11,-1
 474 283 l 1,12,-1
 184 283 l 1,13,-1
 184 69 l 1,14,-1
 492 69 l 1,15,-1
 492 0 l 1,16,-1
 105 0 l 1,17,-1
 105 629 l 1,6,-1
EndSplineSet
EndChar

StartChar: Icircumflex
Encoding: 206 206 123
Width: 280
Flags: W
LayerCount: 2
Fore
SplineSet
320 716 m 1,0,-1
 270 677 l 1,1,-1
 141 785 l 1,2,-1
 11 677 l 1,3,-1
 -39 716 l 1,4,-1
 141 872 l 1,5,-1
 320 716 l 1,0,-1
101 629 m 1,6,-1
 180 629 l 1,7,-1
 180 0 l 1,8,-1
 101 0 l 1,9,-1
 101 629 l 1,6,-1
EndSplineSet
EndChar

StartChar: Ocircumflex
Encoding: 212 212 124
Width: 646
Flags: W
LayerCount: 2
Fore
SplineSet
502 716 m 1,0,-1
 452 677 l 1,1,-1
 323 785 l 1,2,-1
 193 677 l 1,3,-1
 143 716 l 1,4,-1
 323 872 l 1,5,-1
 502 716 l 1,0,-1
323 569 m 128,-1,7
 235 569 235 569 184 503 c 128,-1,8
 133 437 133 437 133 313 c 128,-1,9
 133 189 133 189 184 125 c 128,-1,10
 235 61 235 61 323 61 c 128,-1,11
 411 61 411 61 462.5 125 c 128,-1,12
 514 189 514 189 514 313 c 128,-1,13
 514 437 514 437 462.5 503 c 128,-1,6
 411 569 411 569 323 569 c 128,-1,7
323 640 m 0,14,15
 445.049 640 445.049 640 520.525 556.253 c 128,-1,16
 596 472.507 596 472.507 596 313.219 c 128,-1,17
 596 153.932 596 153.932 520.75 71.4658 c 128,-1,18
 445.5 -11 445.5 -11 323 -11 c 0,19,20
 199.556 -11 199.556 -11 125.278 72.5625 c 128,-1,21
 51 156.125 51 156.125 51 314 c 0,22,23
 51 472.875 51 472.875 125.278 556.438 c 128,-1,24
 199.556 640 199.556 640 323 640 c 0,14,15
EndSplineSet
EndChar

StartChar: Ucircumflex
Encoding: 219 219 125
Width: 654
Flags: W
LayerCount: 2
Fore
SplineSet
505 716 m 1,0,-1
 455 677 l 1,1,-1
 326 785 l 1,2,-1
 196 677 l 1,3,-1
 146 716 l 1,4,-1
 326 872 l 1,5,-1
 505 716 l 1,0,-1
166 629 m 1,6,-1
 166 227 l 2,7,8
 166 139 166 139 210 100 c 128,-1,9
 254 61 254 61 326 61 c 128,-1,10
 398 61 398 61 442 100 c 128,-1,11
 486 139 486 139 486 227 c 2,12,-1
 486 629 l 1,13,-1
 565 629 l 1,14,-1
 565 227 l 2,15,16
 565 109 565 109 500 49 c 128,-1,17
 435 -11 435 -11 325.5 -11 c 128,-1,18
 216 -11 216 -11 151.5 49 c 128,-1,19
 87 109 87 109 87 227 c 2,20,-1
 87 629 l 1,21,-1
 166 629 l 1,6,-1
EndSplineSet
EndChar

StartChar: tilde
Encoding: 732 732 126
Width: 366
Flags: W
LayerCount: 2
Fore
SplineSet
112 770 m 0,0,1
 79.6207 770 79.6207 770 55 719 c 1,2,-1
 23 738 l 1,3,4
 35 789 35 789 58 815.5 c 128,-1,5
 81 842 81 842 107 842 c 128,-1,6
 133 842 133 842 166.5 825 c 0,7,8
 212.676 801.568 212.676 801.568 226.171 795.784 c 128,-1,9
 239.667 790 239.667 790 252.833 790 c 128,-1,10
 266 790 266 790 280 802.5 c 128,-1,11
 294 815 294 815 304 842 c 1,12,-1
 339 819 l 1,13,14
 328 771 328 771 303.5 745 c 128,-1,15
 279 719 279 719 258.5 719 c 128,-1,16
 238 719 238 719 221 725 c 128,-1,17
 204 731 204 731 174 746.5 c 128,-1,18
 144 762 144 762 133.5 766 c 128,-1,19
 123 770 123 770 112 770 c 0,0,1
EndSplineSet
EndChar

StartChar: ampersand
Encoding: 38 38 127
Width: 916
Flags: W
LayerCount: 2
Fore
SplineSet
480 488 m 0,0,1
 480 524 480 524 452.5 548 c 128,-1,2
 425 572 425 572 375.5 572 c 128,-1,3
 326 572 326 572 298.5 544.5 c 128,-1,4
 271 517 271 517 271 485 c 128,-1,5
 271 453 271 453 284 428 c 128,-1,6
 297 403 297 403 327 377 c 1,7,-1
 354 352 l 1,8,9
 457.538 399.571 457.538 399.571 474.5 452 c 0,10,11
 480 469 480 469 480 488 c 0,0,1
211.5 251 m 128,-1,13
 175 224 175 224 175 176 c 128,-1,14
 175 128 175 128 216.5 93.5 c 128,-1,15
 258 59 258 59 344.048 59 c 128,-1,16
 430.097 59 430.097 59 511 125 c 1,17,-1
 325 288 l 1,18,12
 248 278 248 278 211.5 251 c 128,-1,13
725 350 m 1,19,20
 680.152 213.32 680.152 213.32 610 128 c 1,21,-1
 653 91 l 2,22,23
 673 74 673 74 688.5 66 c 128,-1,24
 704 58 704 58 728.5 58 c 128,-1,25
 753 58 753 58 772.5 76.5 c 128,-1,26
 792 95 792 95 795 140 c 1,27,-1
 869 140 l 1,28,29
 865 68 865 68 831.5 28.5 c 128,-1,30
 798 -11 798 -11 734 -11 c 0,31,32
 695 -11 695 -11 662 5 c 128,-1,33
 629 21 629 21 590 56 c 1,34,-1
 564 78 l 1,35,36
 464.405 -11 464.405 -11 336 -11 c 0,37,38
 231.061 -11 231.061 -11 160.031 41.7348 c 128,-1,39
 89 94.4697 89 94.4697 89 168.235 c 128,-1,40
 89 242 89 242 136.5 279.5 c 128,-1,41
 184 317 184 317 276 332 c 1,42,-1
 262 345 l 1,43,44
 185 411.595 185 411.595 185 492 c 0,45,46
 185 555.4 185 555.4 237.25 597.2 c 128,-1,47
 289.5 639 289.5 639 376.096 639 c 128,-1,48
 462.692 639 462.692 639 514.346 597.031 c 128,-1,49
 566 555.062 566 555.062 566 495.531 c 128,-1,50
 566 436 566 436 527 393 c 128,-1,51
 488 350 488 350 400 312 c 1,52,-1
 558 173 l 1,53,54
 626.19 254.828 626.19 254.828 670 380 c 1,55,-1
 725 350 l 1,19,20
EndSplineSet
EndChar

StartChar: at
Encoding: 64 64 128
Width: 940
Flags: W
LayerCount: 2
Fore
SplineSet
641 138 m 2,0,1
 641 87 641 87 680 87 c 0,2,3
 700 87 700 87 723.5 100.5 c 128,-1,4
 747 114 747 114 766.5 140 c 0,5,6
 812 200.667 812 200.667 812 296 c 0,7,8
 812 415.103 812 415.103 730.892 492.051 c 128,-1,9
 649.784 569 649.784 569 511 569 c 0,10,11
 429 569 429 569 362 541 c 128,-1,12
 295 513 295 513 247.5 465.5 c 0,13,14
 148 366 148 366 148 216.995 c 128,-1,15
 148 67.9902 148 67.9902 254 -24.5 c 128,-1,16
 360.011 -117 360.011 -117 545 -117 c 1,17,-1
 545 -181 l 1,18,19
 332.167 -181 332.167 -181 198 -66 c 0,20,21
 135 -12 135 -12 101 62.5 c 128,-1,22
 67 137 67 137 67 226 c 128,-1,23
 67 315 67 315 100 391 c 128,-1,24
 133 467 133 467 192 522.5 c 128,-1,25
 251 578 251 578 332.5 609 c 128,-1,26
 414 640 414 640 505 640 c 128,-1,27
 596 640 596 640 667 613 c 128,-1,28
 738 586 738 586 788 539.5 c 128,-1,29
 838 493 838 493 866 430 c 128,-1,30
 894 367 894 367 894 300.5 c 0,31,32
 894 178.167 894 178.167 829.643 103.083 c 128,-1,33
 765.286 28 765.286 28 679 28 c 0,34,35
 636 28 636 28 610 46 c 128,-1,36
 584 64 584 64 579 98 c 1,37,-1
 576 114 l 1,38,39
 558 76 558 76 528 52 c 128,-1,40
 498 28 498 28 457.5 28 c 0,41,42
 384.444 28 384.444 28 336.722 76.8068 c 128,-1,43
 289 125.614 289 125.614 289 201 c 0,44,45
 289 300.419 289 300.419 355.222 367.71 c 128,-1,46
 421.444 435 421.444 435 512 435 c 0,47,48
 572 435 572 435 606.5 399 c 128,-1,49
 641 363 641 363 641 290 c 2,50,-1
 641 138 l 2,0,1
575 289 m 2,51,52
 575 373 575 373 515.5 373 c 0,53,54
 457.455 373 457.455 373 410.227 324.674 c 128,-1,55
 363 276.349 363 276.349 363 202 c 0,56,57
 363 149 363 149 390.5 120 c 128,-1,58
 418 91 418 91 459 91 c 128,-1,59
 500 91 500 91 526 114.5 c 128,-1,60
 552 138 552 138 575 183 c 1,61,-1
 575 289 l 2,51,52
EndSplineSet
EndChar

StartChar: dieresis
Encoding: 168 168 129
Width: 323
Flags: W
LayerCount: 2
Fore
SplineSet
207 793.5 m 128,-1,1
 192 808 192 808 192 829 c 128,-1,2
 192 850 192 850 207 864.5 c 128,-1,3
 222 879 222 879 244.5 879 c 128,-1,4
 267 879 267 879 282.5 864.5 c 128,-1,5
 298 850 298 850 298 829 c 128,-1,6
 298 808 298 808 282.5 793.5 c 128,-1,7
 267 779 267 779 244.5 779 c 128,-1,0
 222 779 222 779 207 793.5 c 128,-1,1
38.5 793.5 m 128,-1,9
 24 808 24 808 24 829 c 128,-1,10
 24 850 24 850 38.5 864.5 c 128,-1,11
 53 879 53 879 76 879 c 128,-1,12
 99 879 99 879 114.5 864.5 c 128,-1,13
 130 850 130 850 130 829 c 128,-1,14
 130 808 130 808 114.5 793.5 c 128,-1,15
 99 779 99 779 76 779 c 128,-1,8
 53 779 53 779 38.5 793.5 c 128,-1,9
EndSplineSet
EndChar

StartChar: adieresis
Encoding: 228 228 130
Width: 551
Flags: W
LayerCount: 2
Fore
SplineSet
328 619.5 m 128,-1,1
 313 634 313 634 313 655 c 128,-1,2
 313 676 313 676 328 690.5 c 128,-1,3
 343 705 343 705 365.5 705 c 128,-1,4
 388 705 388 705 403.5 690.5 c 128,-1,5
 419 676 419 676 419 655 c 128,-1,6
 419 634 419 634 403.5 619.5 c 128,-1,7
 388 605 388 605 365.5 605 c 128,-1,0
 343 605 343 605 328 619.5 c 128,-1,1
159.5 619.5 m 128,-1,9
 145 634 145 634 145 655 c 128,-1,10
 145 676 145 676 159.5 690.5 c 128,-1,11
 174 705 174 705 197 705 c 128,-1,12
 220 705 220 705 235.5 690.5 c 128,-1,13
 251 676 251 676 251 655 c 128,-1,14
 251 634 251 634 235.5 619.5 c 128,-1,15
 220 605 220 605 197 605 c 128,-1,8
 174 605 174 605 159.5 619.5 c 128,-1,9
387 199 m 1,16,17
 315.889 219 315.889 219 262.944 219 c 128,-1,18
 210 219 210 219 177 200 c 128,-1,19
 144 181 144 181 144 140 c 0,20,21
 144 50 144 50 246 50 c 0,22,23
 304 50 304 50 345.5 91.5 c 128,-1,24
 387 133 387 133 387 199 c 1,16,17
387 310 m 2,25,26
 387 375 387 375 360 403 c 128,-1,27
 333 431 333 431 281.5 431 c 128,-1,28
 230 431 230 431 198.5 410.5 c 128,-1,29
 167 390 167 390 167 346 c 1,30,-1
 80 346 l 1,31,32
 80 455.778 80 455.778 198 482 c 0,33,34
 234 490 234 490 276.5 490 c 0,35,36
 364.614 490 364.614 490 414.807 444.929 c 128,-1,37
 465 399.857 465 399.857 465 308 c 2,38,-1
 465 0 l 1,39,-1
 397 0 l 1,40,-1
 389 80 l 1,41,42
 345 -11 345 -11 230 -11 c 0,43,44
 152.756 -11 152.756 -11 106.378 32.2159 c 128,-1,45
 60 75.4318 60 75.4318 60 139.066 c 128,-1,46
 60 202.7 60 202.7 111.643 238.85 c 128,-1,47
 163.286 275 163.286 275 240.143 275 c 128,-1,48
 317 275 317 275 387 249 c 1,49,-1
 387 310 l 2,25,26
EndSplineSet
EndChar

StartChar: edieresis
Encoding: 235 235 131
Width: 514
Flags: W
LayerCount: 2
Fore
SplineSet
306 619.5 m 128,-1,1
 291 634 291 634 291 655 c 128,-1,2
 291 676 291 676 306 690.5 c 128,-1,3
 321 705 321 705 343.5 705 c 128,-1,4
 366 705 366 705 381.5 690.5 c 128,-1,5
 397 676 397 676 397 655 c 128,-1,6
 397 634 397 634 381.5 619.5 c 128,-1,7
 366 605 366 605 343.5 605 c 128,-1,0
 321 605 321 605 306 619.5 c 128,-1,1
137.5 619.5 m 128,-1,9
 123 634 123 634 123 655 c 128,-1,10
 123 676 123 676 137.5 690.5 c 128,-1,11
 152 705 152 705 175 705 c 128,-1,12
 198 705 198 705 213.5 690.5 c 128,-1,13
 229 676 229 676 229 655 c 128,-1,14
 229 634 229 634 213.5 619.5 c 128,-1,15
 198 605 198 605 175 605 c 128,-1,8
 152 605 152 605 137.5 619.5 c 128,-1,9
324.5 415 m 0,16,17
 302 427 302 427 269.5 427 c 0,18,19
 207.55 427 207.55 427 172.388 385.633 c 128,-1,20
 137.227 344.267 137.227 344.267 131 282 c 1,21,-1
 386 282 l 1,22,23
 386 382.2 386 382.2 324.5 415 c 0,16,17
267 53 m 0,24,25
 366.159 53 366.159 53 380 140 c 1,26,-1
 461 140 l 1,27,28
 450 68 450 68 397.5 28.5 c 128,-1,29
 345 -11 345 -11 267 -11 c 0,30,31
 170.815 -11 170.815 -11 110.908 57.3158 c 128,-1,32
 51 125.632 51 125.632 51 239.885 c 128,-1,33
 51 354.138 51 354.138 111.615 422.069 c 128,-1,34
 172.231 490 172.231 490 272.642 490 c 128,-1,35
 373.054 490 373.054 490 422.453 412.223 c 128,-1,36
 471.851 334.447 471.851 334.447 457 222 c 1,37,-1
 130 222 l 1,38,39
 130 147.824 130 147.824 165.822 100.412 c 128,-1,40
 201.644 53 201.644 53 267 53 c 0,24,25
EndSplineSet
EndChar

StartChar: odieresis
Encoding: 246 246 132
Width: 547
Flags: W
LayerCount: 2
Fore
SplineSet
321 619.5 m 128,-1,1
 306 634 306 634 306 655 c 128,-1,2
 306 676 306 676 321 690.5 c 128,-1,3
 336 705 336 705 358.5 705 c 128,-1,4
 381 705 381 705 396.5 690.5 c 128,-1,5
 412 676 412 676 412 655 c 128,-1,6
 412 634 412 634 396.5 619.5 c 128,-1,7
 381 605 381 605 358.5 605 c 128,-1,0
 336 605 336 605 321 619.5 c 128,-1,1
152.5 619.5 m 128,-1,9
 138 634 138 634 138 655 c 128,-1,10
 138 676 138 676 152.5 690.5 c 128,-1,11
 167 705 167 705 190 705 c 128,-1,12
 213 705 213 705 228.5 690.5 c 128,-1,13
 244 676 244 676 244 655 c 128,-1,14
 244 634 244 634 228.5 619.5 c 128,-1,15
 213 605 213 605 190 605 c 128,-1,8
 167 605 167 605 152.5 619.5 c 128,-1,9
381 373.5 m 128,-1,17
 345 422 345 422 275.5 422 c 128,-1,18
 206 422 206 422 169 373.5 c 128,-1,19
 132 325 132 325 132 239.5 c 128,-1,20
 132 154 132 154 167 105.5 c 128,-1,21
 202 57 202 57 271.5 57 c 128,-1,22
 341 57 341 57 379 105.5 c 128,-1,23
 417 154 417 154 417 239.5 c 128,-1,16
 417 325 417 325 381 373.5 c 128,-1,17
274 490 m 128,-1,25
 373.524 490 373.524 490 435.262 425.175 c 128,-1,26
 497 360.35 497 360.35 497 239 c 0,27,28
 497 118.65 497 118.65 435.262 53.825 c 128,-1,29
 373.524 -11 373.524 -11 274 -11 c 128,-1,30
 174.476 -11 174.476 -11 112.738 53.825 c 128,-1,31
 51 118.65 51 118.65 51 239 c 0,32,33
 51 360.35 51 360.35 112.738 425.175 c 128,-1,24
 174.476 490 174.476 490 274 490 c 128,-1,25
EndSplineSet
EndChar

StartChar: udieresis
Encoding: 252 252 133
Width: 606
Flags: W
LayerCount: 2
Fore
SplineSet
347 619.5 m 128,-1,1
 332 634 332 634 332 655 c 128,-1,2
 332 676 332 676 347 690.5 c 128,-1,3
 362 705 362 705 384.5 705 c 128,-1,4
 407 705 407 705 422.5 690.5 c 128,-1,5
 438 676 438 676 438 655 c 128,-1,6
 438 634 438 634 422.5 619.5 c 128,-1,7
 407 605 407 605 384.5 605 c 128,-1,0
 362 605 362 605 347 619.5 c 128,-1,1
178.5 619.5 m 128,-1,9
 164 634 164 634 164 655 c 128,-1,10
 164 676 164 676 178.5 690.5 c 128,-1,11
 193 705 193 705 216 705 c 128,-1,12
 239 705 239 705 254.5 690.5 c 128,-1,13
 270 676 270 676 270 655 c 128,-1,14
 270 634 270 634 254.5 619.5 c 128,-1,15
 239 605 239 605 216 605 c 128,-1,8
 193 605 193 605 178.5 619.5 c 128,-1,9
426 95 m 1,16,17
 377.059 -9 377.059 -9 267 -9 c 0,18,19
 186 -9 186 -9 136.5 36 c 128,-1,20
 87 81 87 81 87 175 c 2,21,-1
 87 479 l 1,22,-1
 166 479 l 1,23,-1
 166 181 l 2,24,25
 166 60 166 60 278 60 c 0,26,27
 342.875 60 342.875 60 383.5 110 c 128,-1,28
 423.996 159.841 423.996 159.841 426 238 c 1,29,-1
 426 479 l 1,30,-1
 505 479 l 1,31,-1
 505 0 l 1,32,-1
 426 0 l 1,33,-1
 426 95 l 1,16,17
EndSplineSet
EndChar

StartChar: Adieresis
Encoding: 196 196 134
Width: 575
Flags: W
LayerCount: 2
Fore
SplineSet
357 749.5 m 128,-1,1
 342 764 342 764 342 785 c 128,-1,2
 342 806 342 806 357 820.5 c 128,-1,3
 372 835 372 835 394.5 835 c 128,-1,4
 417 835 417 835 432.5 820.5 c 128,-1,5
 448 806 448 806 448 785 c 128,-1,6
 448 764 448 764 432.5 749.5 c 128,-1,7
 417 735 417 735 394.5 735 c 128,-1,0
 372 735 372 735 357 749.5 c 128,-1,1
188.5 749.5 m 128,-1,9
 174 764 174 764 174 785 c 128,-1,10
 174 806 174 806 188.5 820.5 c 128,-1,11
 203 835 203 835 226 835 c 128,-1,12
 249 835 249 835 264.5 820.5 c 128,-1,13
 280 806 280 806 280 785 c 128,-1,14
 280 764 280 764 264.5 749.5 c 128,-1,15
 249 735 249 735 226 735 c 128,-1,8
 203 735 203 735 188.5 749.5 c 128,-1,9
184 222 m 1,16,-1
 393 222 l 1,17,-1
 289 532 l 1,18,-1
 184 222 l 1,16,-1
242 629 m 1,19,-1
 338 629 l 1,20,-1
 549 0 l 1,21,-1
 467 0 l 1,22,-1
 413 160 l 1,23,-1
 163 160 l 1,24,-1
 109 0 l 1,25,-1
 26 0 l 1,26,-1
 242 629 l 1,19,-1
EndSplineSet
EndChar

StartChar: Edieresis
Encoding: 203 203 135
Width: 564
Flags: W
LayerCount: 2
Fore
SplineSet
341 749.5 m 128,-1,1
 326 764 326 764 326 785 c 128,-1,2
 326 806 326 806 341 820.5 c 128,-1,3
 356 835 356 835 378.5 835 c 128,-1,4
 401 835 401 835 416.5 820.5 c 128,-1,5
 432 806 432 806 432 785 c 128,-1,6
 432 764 432 764 416.5 749.5 c 128,-1,7
 401 735 401 735 378.5 735 c 128,-1,0
 356 735 356 735 341 749.5 c 128,-1,1
172.5 749.5 m 128,-1,9
 158 764 158 764 158 785 c 128,-1,10
 158 806 158 806 172.5 820.5 c 128,-1,11
 187 835 187 835 210 835 c 128,-1,12
 233 835 233 835 248.5 820.5 c 128,-1,13
 264 806 264 806 264 785 c 128,-1,14
 264 764 264 764 248.5 749.5 c 128,-1,15
 233 735 233 735 210 735 c 128,-1,8
 187 735 187 735 172.5 749.5 c 128,-1,9
100 629 m 1,16,-1
 487 629 l 1,17,-1
 487 561 l 1,18,-1
 179 561 l 1,19,-1
 179 350 l 1,20,-1
 469 350 l 1,21,-1
 469 283 l 1,22,-1
 179 283 l 1,23,-1
 179 69 l 1,24,-1
 487 69 l 1,25,-1
 487 0 l 1,26,-1
 100 0 l 1,27,-1
 100 629 l 1,16,-1
EndSplineSet
EndChar

StartChar: Idieresis
Encoding: 207 207 136
Width: 280
Flags: W
LayerCount: 2
Fore
SplineSet
187 749.5 m 128,-1,1
 172 764 172 764 172 785 c 128,-1,2
 172 806 172 806 187 820.5 c 128,-1,3
 202 835 202 835 224.5 835 c 128,-1,4
 247 835 247 835 262.5 820.5 c 128,-1,5
 278 806 278 806 278 785 c 128,-1,6
 278 764 278 764 262.5 749.5 c 128,-1,7
 247 735 247 735 224.5 735 c 128,-1,0
 202 735 202 735 187 749.5 c 128,-1,1
18.5 749.5 m 128,-1,9
 4 764 4 764 4 785 c 128,-1,10
 4 806 4 806 18.5 820.5 c 128,-1,11
 33 835 33 835 56 835 c 128,-1,12
 79 835 79 835 94.5 820.5 c 128,-1,13
 110 806 110 806 110 785 c 128,-1,14
 110 764 110 764 94.5 749.5 c 128,-1,15
 79 735 79 735 56 735 c 128,-1,8
 33 735 33 735 18.5 749.5 c 128,-1,9
101 629 m 1,16,-1
 180 629 l 1,17,-1
 180 0 l 1,18,-1
 101 0 l 1,19,-1
 101 629 l 1,16,-1
EndSplineSet
EndChar

StartChar: Odieresis
Encoding: 214 214 137
Width: 646
Flags: W
LayerCount: 2
Fore
SplineSet
369 749.5 m 128,-1,1
 354 764 354 764 354 785 c 128,-1,2
 354 806 354 806 369 820.5 c 128,-1,3
 384 835 384 835 406.5 835 c 128,-1,4
 429 835 429 835 444.5 820.5 c 128,-1,5
 460 806 460 806 460 785 c 128,-1,6
 460 764 460 764 444.5 749.5 c 128,-1,7
 429 735 429 735 406.5 735 c 128,-1,0
 384 735 384 735 369 749.5 c 128,-1,1
200.5 749.5 m 128,-1,9
 186 764 186 764 186 785 c 128,-1,10
 186 806 186 806 200.5 820.5 c 128,-1,11
 215 835 215 835 238 835 c 128,-1,12
 261 835 261 835 276.5 820.5 c 128,-1,13
 292 806 292 806 292 785 c 128,-1,14
 292 764 292 764 276.5 749.5 c 128,-1,15
 261 735 261 735 238 735 c 128,-1,8
 215 735 215 735 200.5 749.5 c 128,-1,9
323 569 m 128,-1,17
 235 569 235 569 184 503 c 128,-1,18
 133 437 133 437 133 313 c 128,-1,19
 133 189 133 189 184 125 c 128,-1,20
 235 61 235 61 323 61 c 128,-1,21
 411 61 411 61 462.5 125 c 128,-1,22
 514 189 514 189 514 313 c 128,-1,23
 514 437 514 437 462.5 503 c 128,-1,16
 411 569 411 569 323 569 c 128,-1,17
323 640 m 0,24,25
 445.049 640 445.049 640 520.525 556.253 c 128,-1,26
 596 472.507 596 472.507 596 313.219 c 128,-1,27
 596 153.932 596 153.932 520.75 71.4658 c 128,-1,28
 445.5 -11 445.5 -11 323 -11 c 0,29,30
 199.556 -11 199.556 -11 125.278 72.5625 c 128,-1,31
 51 156.125 51 156.125 51 314 c 0,32,33
 51 472.875 51 472.875 125.278 556.438 c 128,-1,34
 199.556 640 199.556 640 323 640 c 0,24,25
EndSplineSet
EndChar

StartChar: Udieresis
Encoding: 220 220 138
Width: 654
Flags: W
LayerCount: 2
Fore
SplineSet
372 749.5 m 128,-1,1
 357 764 357 764 357 785 c 128,-1,2
 357 806 357 806 372 820.5 c 128,-1,3
 387 835 387 835 409.5 835 c 128,-1,4
 432 835 432 835 447.5 820.5 c 128,-1,5
 463 806 463 806 463 785 c 128,-1,6
 463 764 463 764 447.5 749.5 c 128,-1,7
 432 735 432 735 409.5 735 c 128,-1,0
 387 735 387 735 372 749.5 c 128,-1,1
203.5 749.5 m 128,-1,9
 189 764 189 764 189 785 c 128,-1,10
 189 806 189 806 203.5 820.5 c 128,-1,11
 218 835 218 835 241 835 c 128,-1,12
 264 835 264 835 279.5 820.5 c 128,-1,13
 295 806 295 806 295 785 c 128,-1,14
 295 764 295 764 279.5 749.5 c 128,-1,15
 264 735 264 735 241 735 c 128,-1,8
 218 735 218 735 203.5 749.5 c 128,-1,9
166 629 m 1,16,-1
 166 227 l 2,17,18
 166 139 166 139 210 100 c 128,-1,19
 254 61 254 61 326 61 c 128,-1,20
 398 61 398 61 442 100 c 128,-1,21
 486 139 486 139 486 227 c 2,22,-1
 486 629 l 1,23,-1
 565 629 l 1,24,-1
 565 227 l 2,25,26
 565 109 565 109 500 49 c 128,-1,27
 435 -11 435 -11 325.5 -11 c 128,-1,28
 216 -11 216 -11 151.5 49 c 128,-1,29
 87 109 87 109 87 227 c 2,30,-1
 87 629 l 1,31,-1
 166 629 l 1,16,-1
EndSplineSet
EndChar

StartChar: dotlessi
Encoding: 305 305 139
Width: 280
Flags: W
LayerCount: 2
Fore
SplineSet
101 479 m 1,0,-1
 180 479 l 1,1,-1
 180 0 l 1,2,-1
 101 0 l 1,3,-1
 101 479 l 1,0,-1
EndSplineSet
EndChar

StartChar: igrave
Encoding: 236 236 140
Width: 299
Flags: W
LayerCount: 2
Fore
SplineSet
45 731 m 1,0,-1
 280 598 l 1,1,-1
 257 548 l 1,2,-1
 12 661 l 1,3,-1
 45 731 l 1,0,-1
106 479 m 1,4,-1
 185 479 l 1,5,-1
 185 0 l 1,6,-1
 106 0 l 1,7,-1
 106 479 l 1,4,-1
EndSplineSet
EndChar

StartChar: icircumflex
Encoding: 238 238 142
Width: 299
Flags: W
LayerCount: 2
Fore
SplineSet
325 587 m 1,0,-1
 275 548 l 1,1,-1
 146 656 l 1,2,-1
 16 548 l 1,3,-1
 -34 587 l 1,4,-1
 146 743 l 1,5,-1
 325 587 l 1,0,-1
106 479 m 1,6,-1
 185 479 l 1,7,-1
 185 0 l 1,8,-1
 106 0 l 1,9,-1
 106 479 l 1,6,-1
EndSplineSet
EndChar

StartChar: idieresis
Encoding: 239 239 143
Width: 299
Flags: W
LayerCount: 2
Fore
SplineSet
192 619.5 m 128,-1,1
 177 634 177 634 177 655 c 128,-1,2
 177 676 177 676 192 690.5 c 128,-1,3
 207 705 207 705 229.5 705 c 128,-1,4
 252 705 252 705 267.5 690.5 c 128,-1,5
 283 676 283 676 283 655 c 128,-1,6
 283 634 283 634 267.5 619.5 c 128,-1,7
 252 605 252 605 229.5 605 c 128,-1,0
 207 605 207 605 192 619.5 c 128,-1,1
23.5 619.5 m 128,-1,9
 9 634 9 634 9 655 c 128,-1,10
 9 676 9 676 23.5 690.5 c 128,-1,11
 38 705 38 705 61 705 c 128,-1,12
 84 705 84 705 99.5 690.5 c 128,-1,13
 115 676 115 676 115 655 c 128,-1,14
 115 634 115 634 99.5 619.5 c 128,-1,15
 84 605 84 605 61 605 c 128,-1,8
 38 605 38 605 23.5 619.5 c 128,-1,9
106 479 m 1,16,-1
 185 479 l 1,17,-1
 185 0 l 1,18,-1
 106 0 l 1,19,-1
 106 479 l 1,16,-1
EndSplineSet
EndChar

StartChar: rupeesymbol
Encoding: 8377 8377 144
Width: 581
Flags: W
LayerCount: 2
Fore
SplineSet
92 629 m 1,0,-1
 508 629 l 1,1,-1
 508 580 l 1,2,-1
 325 580 l 1,3,4
 394 544 394 544 409 477 c 1,5,-1
 508 477 l 1,6,-1
 508 429 l 1,7,-1
 414 429 l 1,8,9
 407.432 314.068 407.432 314.068 295 270.5 c 0,10,11
 255 255 255 255 200 250 c 1,12,-1
 474 0 l 1,13,-1
 362 0 l 1,14,-1
 92 248 l 1,15,-1
 92 296 l 1,16,-1
 153 296 l 2,17,18
 240 296 240 296 282 334 c 128,-1,19
 324 372 324 372 327 429 c 1,20,-1
 92 429 l 1,21,-1
 92 477 l 1,22,-1
 323 477 l 1,23,24
 312 523 312 523 270.5 551.5 c 128,-1,25
 229 580 229 580 153 580 c 2,26,-1
 92 580 l 1,27,-1
 92 629 l 1,0,-1
EndSplineSet
EndChar

StartChar: less
Encoding: 60 60 145
Width: 454
Flags: W
LayerCount: 2
Fore
SplineSet
408 512 m 1,0,-1
 120 305 l 1,1,-1
 408 101 l 1,2,-1
 356 40 l 1,3,-1
 40 271 l 1,4,-1
 40 340 l 1,5,-1
 356 572 l 1,6,-1
 408 512 l 1,0,-1
EndSplineSet
EndChar

StartChar: greater
Encoding: 62 62 146
Width: 454
Flags: W
LayerCount: 2
Fore
SplineSet
98 572 m 1,0,-1
 414 340 l 1,1,-1
 414 271 l 1,2,-1
 98 40 l 1,3,-1
 47 101 l 1,4,-1
 333 305 l 1,5,-1
 47 512 l 1,6,-1
 98 572 l 1,0,-1
EndSplineSet
EndChar

StartChar: quotedbl
Encoding: 34 34 147
Width: 306
Flags: W
LayerCount: 2
Fore
SplineSet
278 681 m 1,0,-1
 267 461 l 1,1,-1
 207 461 l 1,2,-1
 196 681 l 1,3,-1
 278 681 l 1,0,-1
110 681 m 1,4,-1
 99 461 l 1,5,-1
 39 461 l 1,6,-1
 28 681 l 1,7,-1
 110 681 l 1,4,-1
EndSplineSet
EndChar

StartChar: numbersign
Encoding: 35 35 148
Width: 627
Flags: W
LayerCount: 2
Fore
SplineSet
232 224 m 1,0,-1
 385 224 l 1,1,-1
 404 402 l 1,2,-1
 251 402 l 1,3,-1
 232 224 l 1,0,-1
380 170 m 1,4,-1
 226 170 l 1,5,-1
 212 31 l 1,6,-1
 138 31 l 1,7,-1
 152 170 l 1,8,-1
 53 170 l 1,9,-1
 58 224 l 1,10,-1
 158 224 l 1,11,-1
 177 402 l 1,12,-1
 76 402 l 1,13,-1
 82 455 l 1,14,-1
 182 455 l 1,15,-1
 197 593 l 1,16,-1
 271 593 l 1,17,-1
 256 455 l 1,18,-1
 410 455 l 1,19,-1
 425 593 l 1,20,-1
 498 593 l 1,21,-1
 483 455 l 1,22,-1
 586 455 l 1,23,-1
 580 402 l 1,24,-1
 478 402 l 1,25,-1
 459 224 l 1,26,-1
 562 224 l 1,27,-1
 556 170 l 1,28,-1
 453 170 l 1,29,-1
 439 31 l 1,30,-1
 365 31 l 1,31,-1
 380 170 l 1,4,-1
EndSplineSet
EndChar

StartChar: asterisk
Encoding: 42 42 149
Width: 412
Flags: W
LayerCount: 2
Fore
SplineSet
173 516 m 1,0,-1
 56 556 l 1,1,-1
 80 610 l 1,2,-1
 186 556 l 1,3,-1
 176 684 l 1,4,-1
 238 684 l 1,5,-1
 228 556 l 1,6,-1
 334 610 l 1,7,-1
 358 556 l 1,8,-1
 242 516 l 1,9,-1
 332 427 l 1,10,-1
 288 388 l 1,11,-1
 208 492 l 1,12,-1
 128 388 l 1,13,-1
 83 427 l 1,14,-1
 173 516 l 1,0,-1
EndSplineSet
EndChar

StartChar: slash
Encoding: 47 47 150
Width: 432
Flags: W
LayerCount: 2
Fore
SplineSet
308 731 m 1,0,-1
 388 731 l 1,1,-1
 136 -73 l 1,2,-1
 57 -73 l 1,3,-1
 308 731 l 1,0,-1
EndSplineSet
EndChar

StartChar: percent
Encoding: 37 37 151
Width: 726
Flags: W
LayerCount: 2
Fore
SplineSet
538 223 m 128,-1,1
 509 223 509 223 491 201 c 128,-1,2
 473 179 473 179 473 132 c 128,-1,3
 473 85 473 85 491 64 c 128,-1,4
 509 43 509 43 538 43 c 128,-1,5
 567 43 567 43 585 64 c 128,-1,6
 603 85 603 85 603 132 c 128,-1,7
 603 179 603 179 585 201 c 128,-1,0
 567 223 567 223 538 223 c 128,-1,1
538 276 m 0,8,9
 592 276 592 276 629.5 238.5 c 128,-1,10
 667 201 667 201 667 132.5 c 128,-1,11
 667 64 667 64 629.5 26.5 c 128,-1,12
 592 -11 592 -11 538 -11 c 0,13,14
 484.5 -11 484.5 -11 447.75 26.8 c 128,-1,15
 411 64.6 411 64.6 411 132.5 c 128,-1,16
 411 200.4 411 200.4 447.75 238.2 c 128,-1,17
 484.5 276 484.5 276 538 276 c 0,8,9
534 629 m 1,18,-1
 616 629 l 1,19,-1
 193 0 l 1,20,-1
 112 0 l 1,21,-1
 534 629 l 1,18,-1
235 565 m 128,-1,23
 217 587 217 587 188 587 c 128,-1,24
 159 587 159 587 141 565 c 128,-1,25
 123 543 123 543 123 496 c 128,-1,26
 123 449 123 449 141 428 c 128,-1,27
 159 407 159 407 188 407 c 128,-1,28
 217 407 217 407 235 428 c 128,-1,29
 253 449 253 449 253 496 c 128,-1,22
 253 543 253 543 235 565 c 128,-1,23
279 602 m 128,-1,31
 317 564 317 564 317 496 c 128,-1,32
 317 428 317 428 279.5 390.5 c 128,-1,33
 241.993 353 241.993 353 188.236 353 c 128,-1,34
 134.493 353 134.493 353 97.75 390.8 c 128,-1,35
 61 428.6 61 428.6 61 496 c 128,-1,36
 61 563.4 61 563.4 98.2361 601.7 c 128,-1,37
 135.472 640 135.472 640 188.236 640 c 128,-1,30
 241 640 241 640 279 602 c 128,-1,31
EndSplineSet
EndChar

StartChar: backslash
Encoding: 92 92 152
Width: 432
Flags: W
LayerCount: 2
Fore
SplineSet
45 731 m 1,0,-1
 124 731 l 1,1,-1
 376 -73 l 1,2,-1
 296 -73 l 1,3,-1
 45 731 l 1,0,-1
EndSplineSet
EndChar

StartChar: bar
Encoding: 124 124 153
Width: 280
Flags: W
LayerCount: 2
Fore
SplineSet
101 750 m 1,0,-1
 180 750 l 1,1,-1
 180 -122 l 1,2,-1
 101 -122 l 1,3,-1
 101 750 l 1,0,-1
EndSplineSet
EndChar

StartChar: bracketleft
Encoding: 91 91 154
Width: 317
Flags: W
LayerCount: 2
Fore
SplineSet
101 731 m 1,0,-1
 299 731 l 1,1,-1
 299 661 l 1,2,-1
 180 661 l 1,3,-1
 180 -32 l 1,4,-1
 299 -32 l 1,5,-1
 299 -102 l 1,6,-1
 101 -102 l 1,7,-1
 101 731 l 1,0,-1
EndSplineSet
EndChar

StartChar: bracketright
Encoding: 93 93 155
Width: 285
Flags: W
LayerCount: 2
Fore
SplineSet
184 -102 m 1,0,-1
 -14 -102 l 1,1,-1
 -14 -32 l 1,2,-1
 105 -32 l 1,3,-1
 105 661 l 1,4,-1
 -14 661 l 1,5,-1
 -14 731 l 1,6,-1
 184 731 l 1,7,-1
 184 -102 l 1,0,-1
EndSplineSet
EndChar

StartChar: asciicircum
Encoding: 94 94 156
Width: 448
Flags: W
LayerCount: 2
Fore
SplineSet
21 245 m 1,0,-1
 197 586 l 1,1,-1
 258 586 l 1,2,-1
 434 245 l 1,3,-1
 346 245 l 1,4,-1
 227 491 l 1,5,-1
 110 245 l 1,6,-1
 21 245 l 1,0,-1
EndSplineSet
EndChar

StartChar: underscore
Encoding: 95 95 157
Width: 726
Flags: W
LayerCount: 2
Fore
SplineSet
55 -56 m 1,0,-1
 671 -56 l 1,1,-1
 671 -124 l 1,2,-1
 55 -124 l 1,3,-1
 55 -56 l 1,0,-1
EndSplineSet
EndChar

StartChar: braceleft
Encoding: 123 123 158
Width: 349
Flags: W
LayerCount: 2
Fore
SplineSet
154 303 m 1,0,1
 206 278.13 206 278.13 206 190 c 2,2,-1
 206 97 l 2,3,4
 206 16 206 16 236.5 -26.5 c 128,-1,5
 267 -69 267 -69 341 -69 c 1,6,-1
 341 -138 l 1,7,8
 128 -138 128 -138 128 96 c 2,9,-1
 128 188 l 2,10,11
 128 231 128 231 119.5 249 c 128,-1,12
 111 267 111 267 92 267 c 2,13,-1
 75 267 l 1,14,-1
 75 343 l 1,15,-1
 92 343 l 2,16,17
 111 343 111 343 119.5 360.5 c 128,-1,18
 128 378 128 378 128 422 c 2,19,-1
 128 513 l 2,20,21
 128 681.457 128 681.457 241.5 730.5 c 0,22,23
 282 748 282 748 341 748 c 1,24,-1
 341 679 l 1,25,26
 267 679 267 679 236.5 636.5 c 128,-1,27
 206 594 206 594 206 512 c 2,28,-1
 206 420 l 2,29,30
 206 334.13 206 334.13 154 307 c 1,31,-1
 154 303 l 1,0,1
EndSplineSet
EndChar

StartChar: braceright
Encoding: 125 125 159
Width: 349
Flags: W
LayerCount: 2
Fore
SplineSet
195 307 m 1,0,1
 143 334.13 143 334.13 143 420 c 2,2,-1
 143 512 l 2,3,4
 143 594 143 594 112.5 636.5 c 128,-1,5
 82 679 82 679 8 679 c 1,6,-1
 8 748 l 1,7,8
 221 748 221 748 221 513 c 2,9,-1
 221 422 l 2,10,11
 221 378 221 378 229.5 360.5 c 128,-1,12
 238 343 238 343 257 343 c 2,13,-1
 274 343 l 1,14,-1
 274 267 l 1,15,-1
 257 267 l 2,16,17
 238 267 238 267 229.5 249 c 128,-1,18
 221 231 221 231 221 188 c 2,19,-1
 221 96 l 2,20,21
 221 -71.8415 221 -71.8415 107 -120.5 c 0,22,23
 66 -138 66 -138 8 -138 c 1,24,-1
 8 -69 l 1,25,26
 82 -69 82 -69 112.5 -26.5 c 128,-1,27
 143 16 143 16 143 97 c 2,28,-1
 143 190 l 2,29,30
 143 278.13 143 278.13 195 303 c 1,31,-1
 195 307 l 1,0,1
EndSplineSet
EndChar

StartChar: asciitilde
Encoding: 126 126 160
Width: 515
Flags: W
LayerCount: 2
Fore
SplineSet
158 282 m 0,0,1
 120.969 282 120.969 282 97 223 c 1,2,-1
 53 246 l 1,3,4
 85.8889 357 85.8889 357 160 357 c 0,5,6
 194.5 357 194.5 357 261.062 329.5 c 128,-1,7
 327.625 302 327.625 302 354 302 c 0,8,9
 394 302 394 302 419 359 c 1,10,-1
 462 332 l 1,11,12
 426.667 226 426.667 226 349 226 c 0,13,14
 326 226 326 226 278 244 c 128,-1,15
 230 262 230 262 215.5 267.5 c 0,16,17
 177.273 282 177.273 282 158 282 c 0,0,1
EndSplineSet
EndChar

StartChar: atilde
Encoding: 227 227 161
Width: 551
Flags: W
LayerCount: 2
Fore
SplineSet
213 641 m 0,0,1
 180.621 641 180.621 641 156 590 c 1,2,-1
 124 609 l 1,3,4
 136 660 136 660 159 686.5 c 128,-1,5
 182 713 182 713 208 713 c 128,-1,6
 234 713 234 713 267.5 696 c 0,7,8
 313.676 672.568 313.676 672.568 327.171 666.784 c 128,-1,9
 340.667 661 340.667 661 353.833 661 c 128,-1,10
 367 661 367 661 381 673.5 c 128,-1,11
 395 686 395 686 405 713 c 1,12,-1
 440 690 l 1,13,14
 429 642 429 642 404.5 616 c 128,-1,15
 380 590 380 590 359.5 590 c 128,-1,16
 339 590 339 590 322 596 c 128,-1,17
 305 602 305 602 275 617.5 c 128,-1,18
 245 633 245 633 234.5 637 c 128,-1,19
 224 641 224 641 213 641 c 0,0,1
387 199 m 1,20,21
 315.889 219 315.889 219 262.944 219 c 128,-1,22
 210 219 210 219 177 200 c 128,-1,23
 144 181 144 181 144 140 c 0,24,25
 144 50 144 50 246 50 c 0,26,27
 303.474 50 303.474 50 344.275 89.755 c 128,-1,28
 385.076 129.51 385.076 129.51 387 193 c 1,29,-1
 387 199 l 1,20,21
387 310 m 2,30,31
 387 375 387 375 360 403 c 128,-1,32
 333 431 333 431 281.5 431 c 128,-1,33
 230 431 230 431 198.5 410.5 c 128,-1,34
 167 390 167 390 167 346 c 1,35,-1
 80 346 l 1,36,37
 80 455.778 80 455.778 198 482 c 0,38,39
 234 490 234 490 276.5 490 c 0,40,41
 364.614 490 364.614 490 414.807 444.929 c 128,-1,42
 465 399.857 465 399.857 465 308 c 2,43,-1
 465 0 l 1,44,-1
 397 0 l 1,45,-1
 389 80 l 1,46,47
 345 -11 345 -11 230 -11 c 0,48,49
 152.756 -11 152.756 -11 106.378 32.2159 c 128,-1,50
 60 75.4318 60 75.4318 60 139.066 c 128,-1,51
 60 202.7 60 202.7 111.643 238.85 c 128,-1,52
 163.286 275 163.286 275 240.143 275 c 128,-1,53
 317 275 317 275 387 249 c 1,54,-1
 387 310 l 2,30,31
EndSplineSet
EndChar

StartChar: ntilde
Encoding: 241 241 162
Width: 604
Flags: W
LayerCount: 2
Fore
SplineSet
237 641 m 0,0,1
 204.621 641 204.621 641 180 590 c 1,2,-1
 148 609 l 1,3,4
 160 660 160 660 183 686.5 c 128,-1,5
 206 713 206 713 232 713 c 128,-1,6
 258 713 258 713 291.5 696 c 0,7,8
 337.676 672.568 337.676 672.568 351.171 666.784 c 128,-1,9
 364.667 661 364.667 661 377.833 661 c 128,-1,10
 391 661 391 661 405 673.5 c 128,-1,11
 419 686 419 686 429 713 c 1,12,-1
 464 690 l 1,13,14
 453 642 453 642 428.5 616 c 128,-1,15
 404 590 404 590 383.5 590 c 128,-1,16
 363 590 363 590 346 596 c 128,-1,17
 329 602 329 602 299 617.5 c 128,-1,18
 269 633 269 633 258.5 637 c 128,-1,19
 248 641 248 641 237 641 c 0,0,1
339 490 m 0,20,21
 224.902 490 224.902 490 178 386 c 1,22,-1
 169 478 l 1,23,-1
 101 478 l 1,24,-1
 101 0 l 1,25,-1
 180 0 l 1,26,-1
 180 235 l 1,27,28
 182 322 182 322 219 371 c 128,-1,29
 256 420 256 420 316 420 c 128,-1,30
 376 420 376 420 408.5 385 c 128,-1,31
 441 350 441 350 441 281 c 2,32,-1
 441 0 l 1,33,-1
 519 0 l 1,34,-1
 519 281 l 2,35,36
 519 378 519 378 471.5 434 c 128,-1,37
 424 490 424 490 339 490 c 0,20,21
EndSplineSet
EndChar

StartChar: otilde
Encoding: 245 245 163
Width: 547
Flags: W
LayerCount: 2
Fore
SplineSet
206 641 m 0,0,1
 173.621 641 173.621 641 149 590 c 1,2,-1
 117 609 l 1,3,4
 129 660 129 660 152 686.5 c 128,-1,5
 175 713 175 713 201 713 c 128,-1,6
 227 713 227 713 260.5 696 c 0,7,8
 306.676 672.568 306.676 672.568 320.171 666.784 c 128,-1,9
 333.667 661 333.667 661 346.833 661 c 128,-1,10
 360 661 360 661 374 673.5 c 128,-1,11
 388 686 388 686 398 713 c 1,12,-1
 433 690 l 1,13,14
 422 642 422 642 397.5 616 c 128,-1,15
 373 590 373 590 352.5 590 c 128,-1,16
 332 590 332 590 315 596 c 128,-1,17
 298 602 298 602 268 617.5 c 128,-1,18
 238 633 238 633 227.5 637 c 128,-1,19
 217 641 217 641 206 641 c 0,0,1
169 373.5 m 128,-1,21
 206 422 206 422 275.5 422 c 128,-1,22
 345 422 345 422 381 373.5 c 128,-1,23
 417 325 417 325 417 239.5 c 128,-1,24
 417 154 417 154 379 105.5 c 128,-1,25
 341 57 341 57 271.5 57 c 128,-1,26
 202 57 202 57 167 105.5 c 128,-1,27
 132 154 132 154 132 239.5 c 128,-1,20
 132 325 132 325 169 373.5 c 128,-1,21
274 490 m 128,-1,29
 174.476 490 174.476 490 112.738 425.175 c 128,-1,30
 51 360.35 51 360.35 51 239 c 0,31,32
 51 118.65 51 118.65 112.738 53.825 c 128,-1,33
 174.476 -11 174.476 -11 274 -11 c 128,-1,34
 373.524 -11 373.524 -11 435.262 53.825 c 128,-1,35
 497 118.65 497 118.65 497 239 c 0,36,37
 497 360.35 497 360.35 435.262 425.175 c 128,-1,28
 373.524 490 373.524 490 274 490 c 128,-1,29
EndSplineSet
EndChar

StartChar: Atilde
Encoding: 195 195 164
Width: 575
Flags: W
LayerCount: 2
Fore
SplineSet
221 770 m 0,0,1
 188.621 770 188.621 770 164 719 c 1,2,-1
 132 738 l 1,3,4
 144 789 144 789 167 815.5 c 128,-1,5
 190 842 190 842 216 842 c 128,-1,6
 242 842 242 842 275.5 825 c 0,7,8
 321.676 801.568 321.676 801.568 335.171 795.784 c 128,-1,9
 348.667 790 348.667 790 361.833 790 c 128,-1,10
 375 790 375 790 389 802.5 c 128,-1,11
 403 815 403 815 413 842 c 1,12,-1
 448 819 l 1,13,14
 437 771 437 771 412.5 745 c 128,-1,15
 388 719 388 719 367.5 719 c 128,-1,16
 347 719 347 719 330 725 c 128,-1,17
 313 731 313 731 283 746.5 c 128,-1,18
 253 762 253 762 242.5 766 c 128,-1,19
 232 770 232 770 221 770 c 0,0,1
184 222 m 1,20,-1
 393 222 l 1,21,-1
 289 532 l 1,22,-1
 184 222 l 1,20,-1
242 629 m 1,23,-1
 338 629 l 1,24,-1
 549 0 l 1,25,-1
 467 0 l 1,26,-1
 413 160 l 1,27,-1
 163 160 l 1,28,-1
 109 0 l 1,29,-1
 26 0 l 1,30,-1
 242 629 l 1,23,-1
EndSplineSet
EndChar

StartChar: Ntilde
Encoding: 209 209 165
Width: 686
Flags: W
LayerCount: 2
Fore
SplineSet
274 770 m 0,0,1
 241.621 770 241.621 770 217 719 c 1,2,-1
 185 738 l 1,3,4
 197 789 197 789 220 815.5 c 128,-1,5
 243 842 243 842 269 842 c 128,-1,6
 295 842 295 842 328.5 825 c 0,7,8
 374.676 801.568 374.676 801.568 388.171 795.784 c 128,-1,9
 401.667 790 401.667 790 414.833 790 c 128,-1,10
 428 790 428 790 442 802.5 c 128,-1,11
 456 815 456 815 466 842 c 1,12,-1
 501 819 l 1,13,14
 490 771 490 771 465.5 745 c 128,-1,15
 441 719 441 719 420.5 719 c 128,-1,16
 400 719 400 719 383 725 c 128,-1,17
 366 731 366 731 336 746.5 c 128,-1,18
 306 762 306 762 295.5 766 c 128,-1,19
 285 770 285 770 274 770 c 0,0,1
99 629 m 1,20,-1
 99 0 l 1,21,-1
 179 0 l 1,22,-1
 179 512 l 1,23,-1
 496 0 l 1,24,-1
 584 0 l 1,25,-1
 584 629 l 1,26,-1
 505 629 l 1,27,-1
 505 124 l 1,28,-1
 193 629 l 1,29,-1
 99 629 l 1,20,-1
EndSplineSet
EndChar

StartChar: Otilde
Encoding: 213 213 166
Width: 646
Flags: W
LayerCount: 2
Fore
SplineSet
254 770 m 0,0,1
 221.621 770 221.621 770 197 719 c 1,2,-1
 165 738 l 1,3,4
 177 789 177 789 200 815.5 c 128,-1,5
 223 842 223 842 249 842 c 128,-1,6
 275 842 275 842 308.5 825 c 0,7,8
 354.676 801.568 354.676 801.568 368.171 795.784 c 128,-1,9
 381.667 790 381.667 790 394.833 790 c 128,-1,10
 408 790 408 790 422 802.5 c 128,-1,11
 436 815 436 815 446 842 c 1,12,-1
 481 819 l 1,13,14
 470 771 470 771 445.5 745 c 128,-1,15
 421 719 421 719 400.5 719 c 128,-1,16
 380 719 380 719 363 725 c 128,-1,17
 346 731 346 731 316 746.5 c 128,-1,18
 286 762 286 762 275.5 766 c 128,-1,19
 265 770 265 770 254 770 c 0,0,1
323 569 m 128,-1,21
 411 569 411 569 462.5 503 c 128,-1,22
 514 437 514 437 514 313 c 128,-1,23
 514 189 514 189 462.5 125 c 128,-1,24
 411 61 411 61 323 61 c 128,-1,25
 235 61 235 61 184 125 c 128,-1,26
 133 189 133 189 133 313 c 128,-1,27
 133 437 133 437 184 503 c 128,-1,20
 235 569 235 569 323 569 c 128,-1,21
323 640 m 0,28,29
 199.556 640 199.556 640 125.278 556.438 c 128,-1,30
 51 472.875 51 472.875 51 314 c 0,31,32
 51 156.125 51 156.125 125.278 72.5625 c 128,-1,33
 199.556 -11 199.556 -11 323 -11 c 0,34,35
 445.5 -11 445.5 -11 520.75 71.4658 c 128,-1,36
 596 153.932 596 153.932 596 313.219 c 128,-1,37
 596 472.507 596 472.507 520.525 556.253 c 128,-1,38
 445.049 640 445.049 640 323 640 c 0,28,29
EndSplineSet
EndChar

StartChar: ccedilla
Encoding: 231 231 167
Width: 515
Flags: W
LayerCount: 2
Fore
SplineSet
351.075 -108.613 m 0,0,1
 351.075 -182.67 351.075 -182.67 238.967 -182.67 c 0,2,3
 215.646 -182.67 215.646 -182.67 202.144 -181.033 c 1,4,-1
 202.144 -140.938 l 1,5,6
 222.192 -143.392 222.192 -143.392 237.331 -143.392 c 0,7,8
 297.477 -143.392 297.477 -143.392 297.477 -110.25 c 0,9,10
 297.477 -78.7451 297.477 -78.7451 243.059 -78.7451 c 0,11,12
 225.466 -78.7451 225.466 -78.7451 219.737 -79.5635 c 1,13,-1
 244.649 -9.81105 l 1,14,15
 168.949 -1.9453 168.949 -1.9453 113.654 57.958 c 0,16,17
 50 126.917 50 126.917 50 241.292 c 128,-1,18
 50 355.667 50 355.667 112.969 422.833 c 128,-1,19
 175.938 490 175.938 490 260.683 490 c 128,-1,20
 345.429 490 345.429 490 395.128 446.513 c 128,-1,21
 444.827 403.026 444.827 403.026 460 338 c 1,22,-1
 380 331 l 1,23,24
 367 373 367 373 338 396.5 c 128,-1,25
 309 420 309 420 274.5 420 c 0,26,27
 209.911 420 209.911 420 170.456 372.014 c 128,-1,28
 131 324.027 131 324.027 131 241.722 c 128,-1,29
 131 159.417 131 159.417 169.457 109.208 c 128,-1,30
 207.915 59 207.915 59 265.457 59 c 128,-1,31
 323 59 323 59 351.5 85.5 c 128,-1,32
 380 112 380 112 380 161 c 1,33,-1
 461 161 l 1,34,35
 461 83.8232 461 83.8232 407.267 36.4121 c 0,36,37
 359.983 -5.30876 359.983 -5.30876 288.076 -10.3168 c 1,38,-1
 274.154 -46.0137 l 1,39,40
 312.614 -47.2402 312.614 -47.2402 331.844 -63.8115 c 128,-1,41
 351.075 -80.3818 351.075 -80.3818 351.075 -108.613 c 0,0,1
EndSplineSet
EndChar

StartChar: oe
Encoding: 339 339 169
Width: 876
Flags: W
LayerCount: 2
Back
SplineSet
631.758 56.5 m 4,0,1
 730.917 56.5 730.917 56.5 744.758 143.5 c 5,2,-1
 825.758 143.5 l 5,3,4
 814.758 71.5 814.758 71.5 762.258 32 c 132,-1,5
 709.758 -7.5 709.758 -7.5 631.758 -7.5 c 4,6,7
 535.573 -7.5 535.573 -7.5 475.666 60.8154 c 132,-1,8
 415.758 129.132 415.758 129.132 415.758 243.385 c 132,-1,9
 415.758 357.638 415.758 357.638 476.373 425.569 c 132,-1,10
 536.989 493.5 536.989 493.5 637.4 493.5 c 132,-1,11
 737.812 493.5 737.812 493.5 787.211 415.723 c 132,-1,12
 836.609 337.947 836.609 337.947 821.758 225.5 c 5,13,-1
 494.758 225.5 l 5,14,15
 494.758 151.324 494.758 151.324 530.58 103.912 c 132,-1,16
 566.402 56.5 566.402 56.5 631.758 56.5 c 4,0,1
689.258 418.5 m 4,17,18
 666.758 430.5 666.758 430.5 634.258 430.5 c 4,19,20
 572.308 430.5 572.308 430.5 537.146 389.133 c 132,-1,21
 501.985 347.767 501.985 347.767 495.758 285.5 c 5,22,-1
 750.758 285.5 l 5,23,24
 750.758 385.7 750.758 385.7 689.258 418.5 c 4,17,18
273 490 m 260,25,26
 372.524 490 372.524 490 434.262 425.175 c 132,-1,27
 496 360.35 496 360.35 496 239 c 260,28,29
 496 118.65 496 118.65 434.262 53.825 c 132,-1,30
 372.524 -11 372.524 -11 273 -11 c 260,31,32
 173.476 -11 173.476 -11 111.738 53.825 c 132,-1,33
 50 118.65 50 118.65 50 239 c 260,34,35
 50 360.35 50 360.35 111.738 425.175 c 132,-1,36
 173.476 490 173.476 490 273 490 c 260,25,26
380 373.5 m 132,-1,38
 344 422 344 422 274.5 422 c 132,-1,39
 205 422 205 422 168 373.5 c 132,-1,40
 131 325 131 325 131 239.5 c 132,-1,41
 131 154 131 154 166 105.5 c 132,-1,42
 201 57 201 57 270.5 57 c 132,-1,43
 340 57 340 57 378 105.5 c 132,-1,44
 416 154 416 154 416 239.5 c 132,-1,37
 416 325 416 325 380 373.5 c 132,-1,38
EndSplineSet
Fore
SplineSet
689.258 418.5 m 0,0,1
 666.758 430.5 666.758 430.5 634.258 430.5 c 0,2,3
 572.308 430.5 572.308 430.5 537.146 389.133 c 128,-1,4
 501.985 347.767 501.985 347.767 495.758 285.5 c 1,5,-1
 750.758 285.5 l 1,6,7
 750.758 385.7 750.758 385.7 689.258 418.5 c 0,0,1
273 490 m 128,-1,9
 372.524 490 372.524 490 434.262 425.175 c 0,10,11
 446.087 412.759 446.087 412.759 455.647 398.269 c 1,12,13
 464.93 412.745 464.93 412.745 476.373 425.569 c 0,14,15
 536.989 493.5 536.989 493.5 637.4 493.5 c 128,-1,16
 737.812 493.5 737.812 493.5 787.211 415.723 c 128,-1,17
 836.609 337.947 836.609 337.947 821.758 225.5 c 1,18,-1
 495.801 225.5 l 1,19,20
 495.58 218.124 495.58 218.124 495.114 210.968 c 0,21,22
 498.331 146.595 498.331 146.595 530.58 103.912 c 0,23,24
 566.402 56.5 566.402 56.5 631.758 56.5 c 0,25,26
 730.917 56.5 730.917 56.5 744.758 143.5 c 1,27,-1
 825.758 143.5 l 1,28,29
 814.758 71.5 814.758 71.5 762.258 32 c 128,-1,30
 709.758 -7.5 709.758 -7.5 631.758 -7.5 c 0,31,32
 535.573 -7.5 535.573 -7.5 475.666 60.8154 c 0,33,34
 465.978 71.8627 465.978 71.8627 457.857 84.1112 c 1,35,36
 447.473 67.6968 447.473 67.6968 434.262 53.825 c 0,37,38
 372.524 -11 372.524 -11 273 -11 c 128,-1,39
 173.476 -11 173.476 -11 111.738 53.825 c 128,-1,40
 50 118.65 50 118.65 50 239 c 0,41,42
 50 360.35 50 360.35 111.738 425.175 c 128,-1,8
 173.476 490 173.476 490 273 490 c 128,-1,9
380 373.5 m 0,43,44
 344 422 344 422 274.5 422 c 128,-1,45
 205 422 205 422 168 373.5 c 128,-1,46
 131 325 131 325 131 239.5 c 128,-1,47
 131 154 131 154 166 105.5 c 128,-1,48
 201 57 201 57 270.5 57 c 128,-1,49
 340 57 340 57 378 105.5 c 0,50,51
 414.243 151.757 414.243 151.757 415.919 231.672 c 0,52,53
 415.758 237.467 415.758 237.467 415.758 243.385 c 0,54,55
 415.758 247.282 415.758 247.282 415.829 251.125 c 0,56,57
 413.515 328.347 413.515 328.347 380 373.5 c 0,43,44
EndSplineSet
EndChar

StartChar: OE
Encoding: 338 338 170
Width: 646
Flags: W
LayerCount: 2
Fore
SplineSet
323 569 m 128,-1,1
 235 569 235 569 184 503 c 128,-1,2
 133 437 133 437 133 313 c 128,-1,3
 133 189 133 189 184 125 c 128,-1,4
 235 61 235 61 323 61 c 128,-1,5
 411 61 411 61 462.5 125 c 128,-1,6
 514 189 514 189 514 313 c 128,-1,7
 514 437 514 437 462.5 503 c 128,-1,0
 411 569 411 569 323 569 c 128,-1,1
323 640 m 0,8,9
 445.049 640 445.049 640 520.525 556.253 c 128,-1,10
 596 472.507 596 472.507 596 313.219 c 128,-1,11
 596 153.932 596 153.932 520.75 71.4658 c 128,-1,12
 445.5 -11 445.5 -11 323 -11 c 0,13,14
 199.556 -11 199.556 -11 125.278 72.5625 c 128,-1,15
 51 156.125 51 156.125 51 314 c 0,16,17
 51 472.875 51 472.875 125.278 556.438 c 128,-1,18
 199.556 640 199.556 640 323 640 c 0,8,9
EndSplineSet
EndChar

StartChar: cedilla
Encoding: 184 184 171
Width: 682
VWidth: 2048
Flags: W
LayerCount: 2
Back
SplineSet
327 -109 m 4,0,1
 327 -85 327 -85 280 -85 c 6,2,-1
 250 -85 l 5,3,-1
 261 0 l 5,4,-1
 305 0 l 5,5,-1
 299 -47 l 5,6,-1
 316 -48 l 6,7,8
 384 -53 384 -53 384 -103 c 4,9,10
 384 -131 384 -131 355.5 -154 c 132,-1,11
 327 -177 327 -177 268 -177 c 132,-1,12
 209 -177 209 -177 157 -140 c 5,13,-1
 182 -98 l 5,14,15
 225 -134 225 -134 281 -134 c 4,16,17
 307 -134 307 -134 317 -126.5 c 132,-1,18
 327 -119 327 -119 327 -109 c 4,0,1
EndSplineSet
Fore
SplineSet
366.075 -103.513 m 0,0,1
 366.075 -177.57 366.075 -177.57 253.967 -177.57 c 0,2,3
 230.646 -177.57 230.646 -177.57 217.144 -175.933 c 1,4,-1
 217.144 -135.837 l 1,5,6
 237.192 -138.292 237.192 -138.292 252.331 -138.292 c 0,7,8
 312.477 -138.292 312.477 -138.292 312.477 -105.15 c 0,9,10
 312.477 -73.6455 312.477 -73.6455 258.059 -73.6455 c 0,11,12
 240.466 -73.6455 240.466 -73.6455 234.737 -74.4639 c 1,13,-1
 261.332 0.000976562 l 1,14,-1
 305.111 0.000976562 l 1,15,-1
 289.154 -40.9141 l 1,16,17
 327.614 -42.1406 327.614 -42.1406 346.844 -58.7119 c 128,-1,18
 366.075 -75.2822 366.075 -75.2822 366.075 -103.513 c 0,0,1
EndSplineSet
EndChar

StartChar: Ccedilla
Encoding: 199 199 172
Width: 613
VWidth: 0
LayerCount: 2
Fore
SplineSet
396.5 -108.613 m 0,0,1
 396.5 -182.67 396.5 -182.67 284.392 -182.67 c 0,2,3
 261.07 -182.67 261.07 -182.67 247.568 -181.033 c 1,4,-1
 247.568 -140.938 l 1,5,6
 267.617 -143.392 267.617 -143.392 282.756 -143.392 c 0,7,8
 342.901 -143.392 342.901 -143.392 342.901 -110.25 c 0,9,10
 342.901 -78.7451 342.901 -78.7451 288.483 -78.7451 c 0,11,12
 270.891 -78.7451 270.891 -78.7451 265.162 -79.5635 c 1,13,-1
 289.98 -10.0739 l 1,14,15
 188.184 -1.86755 188.184 -1.86755 123.256 79.0576 c 0,16,17
 51 169.116 51 169.116 51 319.995 c 128,-1,18
 51 470.875 51 470.875 126.167 555.438 c 128,-1,19
 201.333 640 201.333 640 319 640 c 0,20,21
 420 640 420 640 481.5 589.5 c 128,-1,22
 543 539 543 539 566 458 c 1,23,-1
 481 441 l 1,24,25
 461 500 461 500 418.5 534.5 c 128,-1,26
 376 569 376 569 319 569 c 0,27,28
 240.397 569 240.397 569 188.198 503.23 c 128,-1,29
 136 437.46 136 437.46 136 319.863 c 128,-1,30
 136 202.267 136 202.267 182.391 131.133 c 128,-1,31
 228.783 60 228.783 60 319 60 c 0,32,33
 394 60 394 60 437.5 99.5 c 128,-1,34
 481 139 481 139 481 204 c 1,35,-1
 566 204 l 1,36,37
 566 105.015 566 105.015 498.67 47.0078 c 0,38,39
 437.15 -5.99314 437.15 -5.99314 333.403 -10.5678 c 1,40,-1
 319.579 -46.0137 l 1,41,42
 358.039 -47.2402 358.039 -47.2402 377.269 -63.8115 c 128,-1,43
 396.5 -80.3818 396.5 -80.3818 396.5 -108.613 c 0,0,1
EndSplineSet
EndChar

StartChar: ring
Encoding: 730 730 173
Width: 434
VWidth: 0
Flags: W
LayerCount: 2
Fore
SplineSet
234.581 688.672 m 128,-1,1
 234.581 716.016 234.581 716.016 215.538 735.059 c 128,-1,2
 196.495 754.102 196.495 754.102 169.151 754.102 c 0,3,4
 141.319 754.102 141.319 754.102 122.276 735.059 c 128,-1,5
 103.233 716.016 103.233 716.016 103.233 688.672 c 0,6,7
 103.233 661.816 103.233 661.816 121.788 641.797 c 128,-1,8
 140.343 621.777 140.343 621.777 169.151 621.777 c 0,9,10
 197.472 621.777 197.472 621.777 216.026 641.553 c 128,-1,0
 234.581 661.328 234.581 661.328 234.581 688.672 c 128,-1,1
287.315 688.672 m 128,-1,12
 287.315 639.844 287.315 639.844 252.647 605.176 c 128,-1,13
 217.979 570.508 217.979 570.508 169.151 570.508 c 128,-1,14
 120.323 570.508 120.323 570.508 85.6553 605.176 c 128,-1,15
 50.9873 639.844 50.9873 639.844 50.9873 688.672 c 0,16,17
 50.9873 737.988 50.9873 737.988 85.6553 772.168 c 128,-1,18
 120.323 806.348 120.323 806.348 169.151 806.348 c 0,19,20
 217.491 806.348 217.491 806.348 252.403 771.924 c 128,-1,11
 287.315 737.5 287.315 737.5 287.315 688.672 c 128,-1,12
EndSplineSet
EndChar

StartChar: caron
Encoding: 711 711 176
Width: 407
Flags: W
LayerCount: 2
Fore
SplineSet
382.964 837 m 1,0,-1
 332.964 876 l 1,1,-1
 203.964 768 l 1,2,-1
 73.9639 876 l 1,3,-1
 23.9639 837 l 1,4,-1
 203.964 681 l 1,5,-1
 382.964 837 l 1,0,-1
EndSplineSet
EndChar

StartChar: uni0243
Encoding: 579 579 182
Width: 622
Flags: W
LayerCount: 2
Fore
SplineSet
101 629 m 1,0,-1
 336 629 l 2,1,2
 435.4 629 435.4 629 488.7 581.971 c 128,-1,3
 542 534.941 542 534.941 542 464 c 0,4,5
 542 410 542 410 512.5 370 c 128,-1,6
 483 330 483 330 423 316 c 1,7,8
 481.815 305.86 481.815 305.86 517.407 265.033 c 128,-1,9
 553 224.206 553 224.206 553 172 c 0,10,11
 553 56.0241 553 56.0241 439.5 15 c 0,12,13
 398 0 398 0 337 0 c 2,14,-1
 101 0 l 1,15,-1
 101 137 l 1,16,-1
 16 137 l 1,17,-1
 16 203 l 1,18,-1
 101 203 l 1,19,-1
 101 629 l 1,0,-1
335 69 m 2,20,21
 407 69 407 69 438 98 c 128,-1,22
 469 127 469 127 469 175 c 128,-1,23
 469 223 469 223 435 251.5 c 128,-1,24
 401 280 401 280 335 280 c 2,25,-1
 180 280 l 1,26,-1
 180 203 l 1,27,-1
 309 203 l 1,28,-1
 309 137 l 1,29,-1
 180 137 l 1,30,-1
 180 69 l 1,31,-1
 335 69 l 2,20,21
180 348 m 1,32,-1
 334 348 l 2,33,34
 392 348 392 348 426.5 376.5 c 128,-1,35
 461 405 461 405 461 455 c 128,-1,36
 461 505 461 505 427.5 533 c 128,-1,37
 394 561 394 561 334 561 c 2,38,-1
 180 561 l 1,39,-1
 180 348 l 1,32,-1
EndSplineSet
EndChar

StartChar: Euro
Encoding: 8364 8364 183
Width: 612
Flags: W
LayerCount: 2
Fore
SplineSet
337 640 m 0,0,1
 438 640 438 640 495 589.5 c 128,-1,2
 552 539 552 539 575 458 c 1,3,-1
 490 441 l 1,4,5
 470 500 470 500 432 534.5 c 128,-1,6
 394 569 394 569 337 569 c 0,7,8
 270.397 569 270.397 569 218.198 501.23 c 0,9,10
 185.56 458.855 185.56 458.855 173.33 397 c 1,11,-1
 444 397 l 1,12,-1
 422 331 l 1,13,-1
 166.222 331 l 1,14,15
 166 323.538 166 323.538 166 315.863 c 0,16,17
 166 294.102 166 294.102 167.486 274 c 1,18,-1
 403 274 l 1,19,-1
 381 208 l 1,20,-1
 177.41 208 l 1,21,22
 188.251 162.815 188.251 162.815 209.392 129.133 c 0,23,24
 252.783 60 252.783 60 331 60 c 0,25,26
 403 60 403 60 446.5 99.5 c 128,-1,27
 490 139 490 139 490 204 c 1,28,-1
 575 204 l 1,29,30
 575 105.015 575 105.015 507.67 47.0078 c 128,-1,31
 440.339 -11 440.339 -11 329.925 -11 c 128,-1,32
 219.512 -11 219.512 -11 150.256 77.0586 c 0,33,34
 107.973 130.821 107.973 130.821 91.5049 208 c 1,35,-1
 12 208 l 1,36,-1
 34 274 l 1,37,-1
 82.4252 274 l 1,38,39
 81 294.351 81 294.351 81 315.995 c 0,40,41
 81 323.579 81 323.579 81.1899 331 c 1,42,-1
 12 331 l 1,43,-1
 34 397 l 1,44,-1
 87.1422 397 l 1,45,46
 102.487 491.62 102.487 491.62 156.166 553.438 c 0,47,48
 231.333 640 231.333 640 337 640 c 0,0,1
EndSplineSet
EndChar

StartChar: guillemotleft
Encoding: 171 171 184
Width: 454
Flags: W
LayerCount: 2
Fore
SplineSet
369 429.1 m 1,0,-1
 454 429.1 l 1,1,-1
 316.5 233.1 l 1,2,-1
 454 37.0996 l 1,3,-1
 369 37.0996 l 1,4,-1
 223 233.1 l 1,5,-1
 369 429.1 l 1,0,-1
EndSplineSet
EndChar

StartChar: guillemotleft
Encoding: 171 171 185
Width: 470
Flags: W
LayerCount: 2
Fore
SplineSet
354.5 429 m 1,0,-1
 439.5 429 l 1,1,-1
 301.5 233 l 1,2,-1
 439.5 37 l 1,3,-1
 354.5 37 l 1,4,-1
 208.5 233 l 1,5,-1
 354.5 429 l 1,0,-1
181.5 429 m 1,6,-1
 266.5 429 l 1,7,-1
 128.5 233 l 1,8,-1
 266.5 37 l 1,9,-1
 181.5 37 l 1,10,-1
 35.5 233 l 1,11,-1
 181.5 429 l 1,6,-1
EndSplineSet
EndChar

StartChar: guillemotright
Encoding: 187 187 186
Width: 470
Flags: W
LayerCount: 2
Fore
SplineSet
120.5 429 m 1,0,-1
 35.5 429 l 1,1,-1
 173.5 233 l 1,2,-1
 35.5 37 l 1,3,-1
 120.5 37 l 1,4,-1
 266.5 233 l 1,5,-1
 120.5 429 l 1,0,-1
293.5 429 m 1,6,-1
 208.5 429 l 1,7,-1
 346.5 233 l 1,8,-1
 208.5 37 l 1,9,-1
 293.5 37 l 1,10,-1
 439.5 233 l 1,11,-1
 293.5 429 l 1,6,-1
EndSplineSet
EndChar

